<svg width="409" height="60" viewBox="0 0 409 60" fill="none" xmlns="http://www.w3.org/2000/svg">
<path d="M400.529 55.1208C397.889 55.1208 395.703 54.2759 393.971 52.5861C392.239 50.8752 391.373 48.6891 391.373 46.0277V45.9644C391.373 43.4086 392.186 41.2436 393.813 39.4693C395.46 37.695 397.541 36.8079 400.054 36.8079C401.913 36.8079 403.508 37.2726 404.838 38.202C406.169 39.1102 407.13 40.2719 407.722 41.6871C408.313 43.0812 408.609 44.6337 408.609 46.3445C408.609 46.5558 408.588 46.9782 408.545 47.6119H396.157C396.39 48.7947 396.886 49.703 397.646 50.3366C398.428 50.9492 399.41 51.2554 400.593 51.2554C402.198 51.2554 403.656 50.6429 404.965 49.4178L407.722 51.8574C405.947 54.033 403.55 55.1208 400.529 55.1208ZM396.094 44.602H403.92C403.729 43.398 403.307 42.4475 402.652 41.7505C401.997 41.0323 401.131 40.6733 400.054 40.6733C398.998 40.6733 398.122 41.0218 397.425 41.7188C396.728 42.4158 396.284 43.3769 396.094 44.602Z" fill="#4F4F4F"/>
<path d="M377.516 55.0891C375.319 55.0891 373.429 54.2759 371.845 52.6495C370.261 51.002 369.469 48.7736 369.469 45.9644V45.901C369.469 43.1129 370.25 40.9056 371.813 39.2792C373.397 37.6317 375.298 36.8079 377.516 36.8079C379.734 36.8079 381.593 37.7056 383.092 39.501V30.6931H387.908V54.7406H383.092V52.1426C381.656 54.1069 379.797 55.0891 377.516 55.0891ZM375.583 49.5762C376.449 50.5056 377.495 50.9703 378.72 50.9703C379.945 50.9703 380.991 50.5056 381.857 49.5762C382.723 48.6469 383.156 47.4429 383.156 45.9644V45.901C383.156 44.4224 382.723 43.2185 381.857 42.2891C380.991 41.3597 379.945 40.895 378.72 40.895C377.474 40.895 376.418 41.3597 375.552 42.2891C374.707 43.1974 374.284 44.4013 374.284 45.901V45.9644C374.284 47.4429 374.717 48.6469 375.583 49.5762Z" fill="#4F4F4F"/>
<path d="M360.238 35.0337V30.7248H365.307V35.0337H360.238ZM360.397 54.7406V37.1248H365.181V54.7406H360.397Z" fill="#4F4F4F"/>
<path d="M349.88 55.1208C347.239 55.1208 345.053 54.2442 343.321 52.4911C341.589 50.7379 340.723 48.5835 340.723 46.0277V45.9644C340.723 43.4297 341.589 41.2752 343.321 39.501C345.074 37.7056 347.282 36.8079 349.943 36.8079C352.879 36.8079 355.224 37.8007 356.977 39.7861L353.999 42.9544C352.773 41.6238 351.411 40.9584 349.911 40.9584C348.623 40.9584 347.556 41.4442 346.711 42.4158C345.888 43.3663 345.476 44.528 345.476 45.901V45.9644C345.476 47.3795 345.898 48.5729 346.743 49.5445C347.609 50.5162 348.729 51.002 350.101 51.002C351.517 51.002 352.9 50.3577 354.252 49.0693L357.072 51.8891C355.171 54.0436 352.773 55.1208 349.88 55.1208Z" fill="#4F4F4F"/>
<path d="M331.556 35.0337V30.7248H336.626V35.0337H331.556ZM331.715 54.7406V37.1248H336.499V54.7406H331.715Z" fill="#4F4F4F"/>
<path d="M317.088 55.0891C315.187 55.0891 313.709 54.5082 312.653 53.3465C311.596 52.1637 311.068 50.5479 311.068 48.499V37.1248H315.853V46.9782C315.853 48.1822 316.127 49.1115 316.676 49.7663C317.225 50.4 318.007 50.7168 319.021 50.7168C320.056 50.7168 320.858 50.4 321.429 49.7663C322.02 49.1115 322.316 48.1822 322.316 46.9782V37.1248H327.132V54.7406H322.316V52.2059C320.837 54.1281 319.095 55.0891 317.088 55.0891Z" fill="#4F4F4F"/>
<path d="M300.541 55.0574C297.753 55.0574 295.239 54.1808 293 52.4277L295.091 49.2277C297.013 50.6429 298.872 51.3505 300.668 51.3505C302.167 51.3505 302.917 50.8752 302.917 49.9247V49.8614C302.917 49.5445 302.759 49.2594 302.442 49.0059C302.125 48.7525 301.776 48.5624 301.396 48.4356C301.016 48.2878 300.467 48.1082 299.749 47.897C299.664 47.8759 299.601 47.8653 299.559 47.8653C299.516 47.8442 299.464 47.8231 299.4 47.802C299.337 47.7808 299.274 47.7597 299.21 47.7386C298.429 47.5063 297.774 47.2845 297.246 47.0733C296.739 46.8409 296.2 46.5241 295.63 46.1228C295.06 45.7214 294.627 45.2251 294.331 44.6337C294.035 44.0211 293.887 43.303 293.887 42.4792V42.4158C293.887 40.7049 294.5 39.3531 295.725 38.3604C296.95 37.3676 298.481 36.8713 300.319 36.8713C302.642 36.8713 304.818 37.5472 306.846 38.899L305.008 42.2257C303.086 41.1274 301.481 40.5782 300.192 40.5782C299.58 40.5782 299.094 40.7049 298.735 40.9584C298.397 41.1907 298.228 41.5076 298.228 41.9089V41.9723C298.228 42.3947 298.481 42.7432 298.988 43.0178C299.495 43.2924 300.277 43.6092 301.333 43.9683C301.586 44.0528 301.776 44.1162 301.903 44.1584C302.642 44.3907 303.276 44.6337 303.804 44.8871C304.332 45.1195 304.881 45.4363 305.452 45.8376C306.043 46.2178 306.487 46.7142 306.782 47.3267C307.099 47.9181 307.258 48.5941 307.258 49.3544V49.4178C307.258 51.2766 306.635 52.6812 305.388 53.6317C304.163 54.5822 302.547 55.0574 300.541 55.0574Z" fill="#4F4F4F"/>
<path d="M270.787 54.7406V37.1248H275.602V40.7683C276.743 38.0224 278.655 36.7023 281.337 36.8079V41.8455H281.084C279.352 41.8455 278 42.3736 277.028 43.4297C276.078 44.4858 275.602 46.07 275.602 48.1822V54.7406H270.787Z" fill="#4F4F4F"/>
<path d="M258.698 55.1208C256.057 55.1208 253.871 54.2759 252.139 52.5861C250.407 50.8752 249.541 48.6891 249.541 46.0277V45.9644C249.541 43.4086 250.355 41.2436 251.981 39.4693C253.628 37.695 255.709 36.8079 258.223 36.8079C260.081 36.8079 261.676 37.2726 263.007 38.202C264.337 39.1102 265.298 40.2719 265.89 41.6871C266.481 43.0812 266.777 44.6337 266.777 46.3445C266.777 46.5558 266.756 46.9782 266.714 47.6119H254.325C254.558 48.7947 255.054 49.703 255.815 50.3366C256.596 50.9492 257.578 51.2554 258.761 51.2554C260.366 51.2554 261.824 50.6429 263.133 49.4178L265.89 51.8574C264.116 54.033 261.718 55.1208 258.698 55.1208ZM254.262 44.602H262.088C261.898 43.398 261.475 42.4475 260.821 41.7505C260.166 41.0323 259.3 40.6733 258.223 40.6733C257.166 40.6733 256.29 41.0218 255.593 41.7188C254.896 42.4158 254.452 43.3769 254.262 44.602Z" fill="#4F4F4F"/>
<path d="M243.42 55.0257C241.773 55.0257 240.505 54.635 239.618 53.8535C238.731 53.0508 238.287 51.6884 238.287 49.7663V41.2436H236.165V37.1248H238.287V32.5624H243.103V37.1248H247.349V41.2436H243.103V48.9743C243.103 50.1782 243.674 50.7802 244.814 50.7802C245.722 50.7802 246.546 50.5795 247.285 50.1782V54.0436C246.145 54.6984 244.856 55.0257 243.42 55.0257Z" fill="#4F4F4F"/>
<path d="M225.541 54.7406V41.2436H223.419V37.2832H225.541V36.1426C225.541 34.2627 226.006 32.8264 226.935 31.8337C227.844 30.9254 229.185 30.4713 230.959 30.4713C232.29 30.4713 233.462 30.6297 234.476 30.9465V34.9386C233.652 34.664 232.881 34.5267 232.163 34.5267C230.896 34.5267 230.262 35.2026 230.262 36.5545V37.3149H234.444V41.2436H230.326V54.7406H225.541Z" fill="#4F4F4F"/>
<path d="M210.447 55.0891C208.715 55.0891 207.257 54.6139 206.075 53.6634C204.913 52.6917 204.332 51.3611 204.332 49.6713V49.6079C204.332 47.7492 204.976 46.3551 206.265 45.4257C207.553 44.4752 209.285 44 211.461 44C212.96 44 214.428 44.2323 215.865 44.697V44.3802C215.865 42.1624 214.566 41.0535 211.968 41.0535C210.447 41.0535 208.81 41.3809 207.057 42.0356L205.853 38.3604C208.007 37.4099 210.278 36.9347 212.665 36.9347C215.263 36.9347 217.238 37.5894 218.589 38.899C219.857 40.1663 220.49 42.0251 220.49 44.4752V54.7406H215.833V52.7762C214.439 54.3182 212.644 55.0891 210.447 55.0891ZM211.873 51.7307C213.077 51.7307 214.048 51.435 214.787 50.8436C215.548 50.231 215.928 49.4495 215.928 48.499V47.5485C214.893 47.105 213.774 46.8832 212.57 46.8832C211.45 46.8832 210.574 47.105 209.94 47.5485C209.306 47.9921 208.989 48.6152 208.989 49.4178V49.4812C208.989 50.1782 209.253 50.7274 209.781 51.1287C210.31 51.53 211.007 51.7307 211.873 51.7307Z" fill="#4F4F4F"/>
<path d="M187.356 55.0257C185.708 55.0257 184.441 54.635 183.554 53.8535C182.667 53.0508 182.223 51.6884 182.223 49.7663V41.2436H180.1V37.1248H182.223V32.5624H187.039V37.1248H191.284V41.2436H187.039V48.9743C187.039 50.1782 187.609 50.7802 188.75 50.7802C189.658 50.7802 190.482 50.5795 191.221 50.1782V54.0436C190.08 54.6984 188.792 55.0257 187.356 55.0257Z" fill="#4F4F4F"/>
<path d="M167.878 54.7406V37.1248H172.694V40.7683C173.835 38.0224 175.746 36.7023 178.429 36.8079V41.8455H178.175C176.443 41.8455 175.091 42.3736 174.12 43.4297C173.169 44.4858 172.694 46.07 172.694 48.1822V54.7406H167.878Z" fill="#4F4F4F"/>
<path d="M154.373 55.1208C151.69 55.1208 149.441 54.2442 147.624 52.4911C145.829 50.7379 144.931 48.5835 144.931 46.0277V45.9644C144.931 43.4297 145.839 41.2752 147.656 39.501C149.494 37.7056 151.764 36.8079 154.468 36.8079C157.15 36.8079 159.389 37.695 161.185 39.4693C163.001 41.2224 163.909 43.3663 163.909 45.901V45.9644C163.909 48.5201 163.001 50.6851 161.185 52.4594C159.368 54.2337 157.098 55.1208 154.373 55.1208ZM154.468 51.002C155.883 51.002 157.013 50.5267 157.858 49.5762C158.724 48.6046 159.157 47.4218 159.157 46.0277V45.9644C159.157 44.5914 158.703 43.4191 157.795 42.4475C156.907 41.4548 155.767 40.9584 154.373 40.9584C152.958 40.9584 151.817 41.4337 150.951 42.3842C150.106 43.3346 149.684 44.5069 149.684 45.901V45.9644C149.684 47.3373 150.127 48.5201 151.014 49.5129C151.923 50.5056 153.074 51.002 154.468 51.002Z" fill="#4F4F4F"/>
<path d="M123.819 60V37.1247H128.635V39.7544C130.071 37.7901 131.93 36.8079 134.211 36.8079C136.408 36.8079 138.298 37.6317 139.882 39.2792C141.466 40.9056 142.258 43.1129 142.258 45.901V45.9644C142.258 48.7736 141.466 51.002 139.882 52.6495C138.319 54.2759 136.429 55.0891 134.211 55.0891C131.993 55.0891 130.134 54.1808 128.635 52.3643V60H123.819ZM133.007 50.9703C134.253 50.9703 135.299 50.5162 136.144 49.6079C137.01 48.6785 137.443 47.464 137.443 45.9644V45.901C137.443 44.4224 137.01 43.2185 136.144 42.2891C135.278 41.3597 134.232 40.895 133.007 40.895C131.782 40.895 130.736 41.3597 129.87 42.2891C129.004 43.2185 128.571 44.4224 128.571 45.901V45.9644C128.571 47.4429 129.004 48.6469 129.87 49.5762C130.736 50.5056 131.782 50.9703 133.007 50.9703Z" fill="#4F4F4F"/>
<path d="M101.356 60V37.1247H106.172V39.7544C107.608 37.7901 109.467 36.8079 111.748 36.8079C113.945 36.8079 115.835 37.6317 117.419 39.2792C119.003 40.9056 119.796 43.1129 119.796 45.901V45.9644C119.796 48.7736 119.003 51.002 117.419 52.6495C115.856 54.2759 113.966 55.0891 111.748 55.0891C109.53 55.0891 107.671 54.1808 106.172 52.3643V60H101.356ZM110.544 50.9703C111.79 50.9703 112.836 50.5162 113.681 49.6079C114.547 48.6785 114.98 47.464 114.98 45.9644V45.901C114.98 44.4224 114.547 43.2185 113.681 42.2891C112.815 41.3597 111.769 40.895 110.544 40.895C109.319 40.895 108.273 41.3597 107.407 42.2891C106.541 43.2185 106.108 44.4224 106.108 45.901V45.9644C106.108 47.4429 106.541 48.6469 107.407 49.5762C108.273 50.5056 109.319 50.9703 110.544 50.9703Z" fill="#4F4F4F"/>
<path d="M86.4879 55.0891C84.5869 55.0891 83.1083 54.5082 82.0522 53.3465C80.9961 52.1637 80.4681 50.5479 80.4681 48.499V37.1248H85.2522V46.9782C85.2522 48.1822 85.5268 49.1115 86.076 49.7663C86.6252 50.4 87.4067 50.7168 88.4206 50.7168C89.4555 50.7168 90.2582 50.4 90.8285 49.7663C91.4199 49.1115 91.7156 48.1822 91.7156 46.9782V37.1248H96.5314V54.7406H91.7156V52.2059C90.2371 54.1281 88.4945 55.0891 86.4879 55.0891Z" fill="#4F4F4F"/>
<path d="M70.4357 55.0574C67.6476 55.0574 65.134 54.1808 62.8951 52.4277L64.9862 49.2277C66.9083 50.6429 68.767 51.3505 70.5624 51.3505C72.0621 51.3505 72.8119 50.8752 72.8119 49.9247V49.8614C72.8119 49.5445 72.6535 49.2594 72.3367 49.0059C72.0198 48.7525 71.6713 48.5624 71.2911 48.4356C70.9109 48.2878 70.3617 48.1082 69.6436 47.897C69.5591 47.8759 69.4957 47.8653 69.4535 47.8653C69.4113 47.8442 69.3584 47.8231 69.2951 47.802C69.2317 47.7808 69.1683 47.7597 69.105 47.7386C68.3235 47.5063 67.6687 47.2845 67.1406 47.0733C66.6337 46.8409 66.0951 46.5241 65.5248 46.1228C64.9545 45.7214 64.5215 45.2251 64.2258 44.6337C63.9301 44.0211 63.7822 43.303 63.7822 42.4792V42.4158C63.7822 40.7049 64.3948 39.3531 65.6198 38.3604C66.8449 37.3676 68.3763 36.8713 70.2139 36.8713C72.5373 36.8713 74.7129 37.5472 76.7406 38.899L74.903 42.2257C72.9809 41.1274 71.3756 40.5782 70.0872 40.5782C69.4746 40.5782 68.9888 40.7049 68.6297 40.9584C68.2918 41.1907 68.1228 41.5076 68.1228 41.9089V41.9723C68.1228 42.3947 68.3763 42.7432 68.8832 43.0178C69.3901 43.2924 70.1716 43.6092 71.2278 43.9683C71.4812 44.0528 71.6713 44.1162 71.7981 44.1584C72.5373 44.3907 73.171 44.6337 73.699 44.8871C74.2271 45.1195 74.7763 45.4363 75.3466 45.8376C75.938 46.2178 76.3815 46.7142 76.6773 47.3267C76.9941 47.9181 77.1525 48.5941 77.1525 49.3544V49.4178C77.1525 51.2766 76.5294 52.6812 75.2832 53.6317C74.0581 54.5822 72.4423 55.0574 70.4357 55.0574Z" fill="#4F4F4F"/>
<path d="M236.412 24.0475V6.43168H241.227V8.96633C242.6 7.06534 244.343 6.11485 246.455 6.11485C248.356 6.11485 249.835 6.6957 250.891 7.85742C251.968 9.01914 252.507 10.6244 252.507 12.6733V24.0475H247.691V14.1941C247.691 12.9901 247.416 12.0713 246.867 11.4376C246.318 10.7828 245.536 10.4554 244.523 10.4554C243.488 10.4554 242.674 10.7828 242.083 11.4376C241.513 12.0713 241.227 12.9901 241.227 14.1941V24.0475H236.412Z" fill="#4F4F4F"/>
<path d="M223.401 24.4277C220.719 24.4277 218.469 23.5511 216.653 21.798C214.857 20.0449 213.96 17.8904 213.96 15.3346V15.2713C213.96 12.7366 214.868 10.5822 216.684 8.80791C218.522 7.01254 220.793 6.11485 223.496 6.11485C226.179 6.11485 228.418 7.00197 230.213 8.77623C232.03 10.5294 232.938 12.6733 232.938 15.2079V15.2713C232.938 17.8271 232.03 19.9921 230.213 21.7663C228.397 23.5406 226.126 24.4277 223.401 24.4277ZM223.496 20.3089C224.911 20.3089 226.042 19.8337 226.886 18.8832C227.752 17.9115 228.185 16.7287 228.185 15.3346V15.2713C228.185 13.8983 227.731 12.7261 226.823 11.7544C225.936 10.7617 224.795 10.2653 223.401 10.2653C221.986 10.2653 220.845 10.7406 219.979 11.6911C219.135 12.6416 218.712 13.8139 218.712 15.2079V15.2713C218.712 16.6442 219.156 17.8271 220.043 18.8198C220.951 19.8125 222.102 20.3089 223.496 20.3089Z" fill="#4F4F4F"/>
<path d="M207.343 24.3327C205.696 24.3327 204.428 23.9419 203.541 23.1604C202.654 22.3578 202.211 20.9954 202.211 19.0733V10.5505H200.088V6.43168H202.211V1.86931H207.027V6.43168H211.272V10.5505H207.027V18.2812C207.027 19.4852 207.597 20.0871 208.737 20.0871C209.646 20.0871 210.469 19.8865 211.209 19.4852V23.3505C210.068 24.0053 208.78 24.3327 207.343 24.3327Z" fill="#4F4F4F"/>
<path d="M186.813 29.3703C183.877 29.3703 181.279 28.7472 179.019 27.501L180.667 23.8891C182.631 24.9875 184.638 25.5366 186.686 25.5366C190.108 25.5366 191.819 23.8997 191.819 20.6257V19.6752C191.016 20.6469 190.161 21.3861 189.253 21.8931C188.344 22.3789 187.257 22.6218 185.989 22.6218C183.814 22.6218 181.955 21.8825 180.413 20.404C178.892 18.9043 178.132 16.8977 178.132 14.3842V14.3208C178.132 11.8284 178.903 9.8429 180.445 8.36435C181.987 6.86468 183.835 6.11485 185.989 6.11485C188.228 6.11485 190.15 7.01254 191.756 8.80791V6.43168H196.572V20.1505C196.572 23.2343 195.822 25.5261 194.322 27.0257C192.759 28.5888 190.256 29.3703 186.813 29.3703ZM184.183 17.4574C185.028 18.2389 186.084 18.6297 187.352 18.6297C188.619 18.6297 189.675 18.2389 190.52 17.4574C191.386 16.6548 191.819 15.6304 191.819 14.3842V14.3208C191.819 13.0746 191.386 12.0607 190.52 11.2792C189.675 10.4977 188.619 10.1069 187.352 10.1069C186.084 10.1069 185.028 10.4977 184.183 11.2792C183.36 12.0607 182.948 13.0746 182.948 14.3208V14.3842C182.948 15.6304 183.36 16.6548 184.183 17.4574Z" fill="#4F4F4F"/>
<path d="M158.658 24.0475V6.43168H163.474V8.96633C164.847 7.06534 166.589 6.11485 168.702 6.11485C170.603 6.11485 172.081 6.6957 173.137 7.85742C174.214 9.01914 174.753 10.6244 174.753 12.6733V24.0475H169.937V14.1941C169.937 12.9901 169.663 12.0713 169.113 11.4376C168.564 10.7828 167.783 10.4554 166.769 10.4554C165.734 10.4554 164.921 10.7828 164.329 11.4376C163.759 12.0713 163.474 12.9901 163.474 14.1941V24.0475H158.658Z" fill="#4F4F4F"/>
<path d="M148.635 4.34059V0.0316772H153.705V4.34059H148.635ZM148.794 24.0475V6.43168H153.578V24.0475H148.794Z" fill="#4F4F4F"/>
<path d="M128.274 24.0475V0H133.09V8.96634C134.463 7.06535 136.206 6.11485 138.318 6.11485C140.219 6.11485 141.697 6.69571 142.753 7.85743C143.831 9.01914 144.369 10.6244 144.369 12.6733V24.0475H139.553V14.1941C139.553 12.9901 139.279 12.0713 138.73 11.4376C138.181 10.7828 137.399 10.4554 136.385 10.4554C135.35 10.4554 134.537 10.7828 133.946 11.4376C133.375 12.0713 133.09 12.9901 133.09 14.1941V24.0475H128.274Z" fill="#4F4F4F"/>
<path d="M117.62 24.3644C114.832 24.3644 112.318 23.4878 110.079 21.7347L112.171 18.5347C114.093 19.9498 115.951 20.6574 117.747 20.6574C119.246 20.6574 119.996 20.1822 119.996 19.2317V19.1683C119.996 18.8515 119.838 18.5663 119.521 18.3129C119.204 18.0594 118.856 17.8693 118.476 17.7426C118.095 17.5947 117.546 17.4152 116.828 17.204C116.743 17.1828 116.68 17.1723 116.638 17.1723C116.596 17.1512 116.543 17.13 116.479 17.1089C116.416 17.0878 116.353 17.0667 116.289 17.0455C115.508 16.8132 114.853 16.5914 114.325 16.3802C113.818 16.1479 113.279 15.831 112.709 15.4297C112.139 15.0284 111.706 14.532 111.41 13.9406C111.114 13.3281 110.967 12.6099 110.967 11.7861V11.7228C110.967 10.0119 111.579 8.66007 112.804 7.66733C114.029 6.67459 115.561 6.17822 117.398 6.17822C119.722 6.17822 121.897 6.85413 123.925 8.20595L122.087 11.5327C120.165 10.4343 118.56 9.88515 117.272 9.88515C116.659 9.88515 116.173 10.0119 115.814 10.2654C115.476 10.4977 115.307 10.8145 115.307 11.2158V11.2792C115.307 11.7017 115.561 12.0502 116.068 12.3248C116.575 12.5993 117.356 12.9162 118.412 13.2753C118.666 13.3597 118.856 13.4231 118.982 13.4654C119.722 13.6977 120.355 13.9406 120.883 14.1941C121.411 14.4264 121.961 14.7432 122.531 15.1446C123.122 15.5248 123.566 16.0211 123.862 16.6337C124.178 17.2251 124.337 17.901 124.337 18.6614V18.7248C124.337 20.5835 123.714 21.9881 122.468 22.9386C121.243 23.8891 119.627 24.3644 117.62 24.3644Z" fill="#4F4F4F"/>
<path d="M96.771 24.396C95.039 24.396 93.5816 23.9208 92.3988 22.9703C91.237 21.9987 90.6562 20.668 90.6562 18.9782V18.9149C90.6562 17.0561 91.3004 15.662 92.5889 14.7327C93.8773 13.7822 95.6093 13.3069 97.7849 13.3069C99.2846 13.3069 100.753 13.5393 102.189 14.004V13.6871C102.189 11.4693 100.89 10.3604 98.2918 10.3604C96.771 10.3604 95.1341 10.6878 93.3809 11.3426L92.177 7.66733C94.3314 6.71683 96.6021 6.24158 98.9889 6.24158C101.587 6.24158 103.562 6.89637 104.914 8.20594C106.181 9.47327 106.815 11.332 106.815 13.7822V24.0475H102.157V22.0832C100.763 23.6251 98.9677 24.396 96.771 24.396ZM98.1968 21.0376C99.4007 21.0376 100.372 20.7419 101.112 20.1505C101.872 19.538 102.252 18.7564 102.252 17.8059V16.8554C101.217 16.4119 100.098 16.1901 98.8938 16.1901C97.7743 16.1901 96.8978 16.4119 96.2641 16.8554C95.6304 17.299 95.3136 17.9221 95.3136 18.7248V18.7881C95.3136 19.4851 95.5776 20.0343 96.1057 20.4356C96.6337 20.837 97.3308 21.0376 98.1968 21.0376Z" fill="#4F4F4F"/>
<path d="M68.3129 24.1743L62.8634 6.43169H67.7426L70.6891 17.3941L74.1426 6.36832H78.2614L81.7149 17.4258L84.7564 6.43169H89.5406L83.996 24.1743H79.6555L76.1703 13.1168L72.6218 24.1743H68.3129Z" fill="#4F4F4F"/>
<path d="M30.4967 35.8522L28.3139 38.16C28.132 38.3523 27.9274 38.5326 27.7228 38.6768C27.5181 38.5326 27.3249 38.3523 27.143 38.16L17.7071 28.1836C16.9226 27.3663 16.502 26.2725 16.502 25.1186C16.502 23.9647 16.934 22.8709 17.7071 22.0535C18.4915 21.2242 19.526 20.7794 20.6174 20.7794C21.7202 20.7794 22.7547 21.2362 23.5278 22.0415L26.4851 25.495L27.7228 25.7426L28.9604 25.495L31.9291 22.0295C33.5321 20.3347 36.1469 20.3347 37.7498 22.0295C38.5229 22.8468 38.9435 23.9406 38.9435 25.0945C38.9435 26.2604 38.5115 27.3542 37.7498 28.1716L37.1287 28.9604L40.5941 31.9938L41.3764 31.9818C43.1044 30.1308 44.0594 27.6788 44.0594 25.0825C44.0594 22.4742 43.1044 20.0342 41.3651 18.1952C39.6257 16.3562 37.3065 15.3465 34.8395 15.3465C32.3725 15.3465 30.0533 16.3562 28.3139 18.2072L27.7341 18.8202L27.143 18.1832C25.3922 16.3562 23.073 15.3465 20.6174 15.3465C18.1732 15.3465 15.8654 16.3562 14.1032 18.1952C12.3525 20.0342 11.3861 22.4862 11.3861 25.0945C11.3861 27.7028 12.3525 30.1548 14.0919 31.9938L23.505 41.9462C24.4486 42.9558 25.5741 43.7251 26.8474 44.2179L27.7228 44.5545L28.5982 44.2179C29.8601 43.7371 30.9742 42.9799 31.9291 41.9702L34.1119 39.6624L30.4967 35.8522Z" fill="#FB7312"/>
<path d="M27.7228 55.4455C12.4346 55.4455 0 43.011 0 27.7228C0 12.4346 12.4346 0 27.7228 0C43.011 0 55.4455 12.4346 55.4455 27.7228C55.4455 43.011 43.011 55.4455 27.7228 55.4455ZM27.7228 5.46441C15.4461 5.46441 5.46441 15.4461 5.46441 27.7228C5.46441 39.9995 15.4461 49.9811 27.7228 49.9811C39.9995 49.9811 49.9811 39.9995 49.9811 27.7228C49.9811 15.4461 39.9995 5.46441 27.7228 5.46441Z" fill="#FB7312"/>
</svg>
