<svg width="26" height="26" viewBox="0 0 26 26" fill="none" xmlns="http://www.w3.org/2000/svg">
<path d="M24.8941 15.2395L23.8941 15.1526C20.3593 14.8455 17.4245 13.2054 15.6303 10.5346C13.8362 7.86335 13.4277 4.52624 14.48 1.13792L14.7778 0.179382L15.7776 0.266289C19.3122 0.573382 22.2469 2.2135 24.0412 4.88431C25.8355 7.55531 26.2441 10.8924 25.1916 14.2807L24.8941 15.2395ZM17.6984 9.14497C18.8897 10.9179 20.7739 12.0969 23.0731 12.5286C23.5425 10.237 23.1637 8.04665 21.9727 6.27396C20.7817 4.50099 18.8975 3.32208 16.5985 2.8903C16.1289 5.18167 16.5079 7.37205 17.6984 9.14497Z" fill="#009C7A"/>
<path d="M15.9425 25.1794C14.4203 25.1794 12.8698 24.7493 11.4002 23.8996L10.5311 23.3974L10.8368 22.4414C11.6855 19.788 13.4554 17.8234 15.8205 16.91C18.1851 15.996 20.8161 16.2609 23.2287 17.6556L24.0978 18.1578L23.7921 19.1138C22.9434 21.7672 21.1732 23.7316 18.8084 24.6452C17.8841 25.0021 16.9191 25.1794 15.9425 25.1794ZM13.604 22.2106C15.0618 22.7983 16.5605 22.8421 17.9105 22.3206C19.2605 21.7992 20.3407 20.7597 21.0249 19.3446C19.5669 18.7567 18.0683 18.7133 16.7184 19.2346C15.3684 19.756 14.2882 20.7955 13.604 22.2106Z" fill="#009C7A"/>
<path d="M8.78385 16.5677C7.63987 16.5677 6.52029 16.3427 5.4625 15.8898C2.86081 14.7755 1.00145 12.4401 0.226641 9.31318L0 8.39845L0.818566 7.93145C3.6161 6.33509 6.58982 6.06906 9.19105 7.18332C11.7923 8.2974 13.6517 10.6331 14.4269 13.7597L14.6538 14.6747L13.835 15.1417C12.1751 16.0891 10.4532 16.5677 8.78385 16.5677ZM2.93058 9.65364C3.61126 11.527 4.83517 12.9103 6.44335 13.5991C8.05105 14.2877 9.8975 14.2193 11.723 13.4195C11.0421 11.5462 9.81819 10.1626 8.21025 9.47404C6.6016 8.785 4.75633 8.8543 2.93058 9.65364Z" fill="#009C7A"/>
</svg>
