<svg width="353" height="60" viewBox="0 0 353 60" fill="none" xmlns="http://www.w3.org/2000/svg">
<path d="M85.1763 24.6595H80.5734L77.1131 13.6065L73.5852 24.6595H69.0161L63.4728 6.51756H68.6466L71.536 17.4364L74.9292 6.45041H79.3305L82.7575 17.4701L85.714 6.51756H90.7869L85.1763 24.6595Z" fill="#4F4F4F"/>
<path d="M103.084 24.5254V22.577C101.841 23.9541 100.128 24.8613 97.6417 24.8613C94.248 24.8613 91.4594 22.9129 91.4594 19.3517V19.2842C91.4594 15.3534 94.4497 13.5396 98.7167 13.5396C100.531 13.5396 101.841 13.8417 103.117 14.2784V13.9763C103.117 11.8593 101.807 10.6835 99.2542 10.6835C97.3053 10.6835 95.9281 11.0531 94.2817 11.6582L93.0049 7.7607C94.9871 6.88731 96.9356 6.316 99.993 6.316C105.57 6.316 108.023 9.20539 108.023 14.0771V24.5254H103.084ZM103.185 17.2686C102.311 16.8657 101.169 16.5964 99.926 16.5964C97.742 16.5964 96.3981 17.4703 96.3981 19.0829V19.15C96.3981 20.5276 97.5407 21.334 99.1867 21.334C101.572 21.334 103.185 20.0234 103.185 18.1758V17.2686Z" fill="#4F4F4F"/>
<path d="M118.068 24.8613C115.549 24.8613 112.727 24.0217 110.341 22.1403L112.525 18.7804C114.474 20.1914 116.523 20.9306 118.203 20.9306C119.681 20.9306 120.353 20.3931 120.353 19.5868V19.5197C120.353 18.4109 118.606 18.0413 116.624 17.4366C114.104 16.6973 111.248 15.5214 111.248 12.0278V11.9603C111.248 8.29833 114.205 6.24895 117.834 6.24895C120.118 6.24895 122.604 7.02151 124.553 8.33211L122.604 11.8594C120.823 10.8182 119.043 10.1797 117.733 10.1797C116.49 10.1797 115.851 10.7172 115.851 11.4228V11.4903C115.851 12.4978 117.565 12.9683 119.513 13.6405C122.033 14.4801 124.956 15.6899 124.956 18.9822V19.0493C124.956 23.0471 121.965 24.8613 118.068 24.8613Z" fill="#4F4F4F"/>
<path d="M139.335 24.5254V14.48C139.335 12.0611 138.193 10.8181 136.245 10.8181C134.296 10.8181 133.053 12.0611 133.053 14.48V24.5254H127.946V0H133.053V9.07068C134.229 7.55894 135.741 6.1817 138.328 6.1817C142.191 6.1817 144.442 8.73482 144.442 12.8672V24.5253L139.335 24.5254Z" fill="#4F4F4F"/>
<path d="M148.306 4.53534V0H153.681V4.53534H148.306ZM148.44 24.5254V6.51766H153.547V24.5254H148.44Z" fill="#4F4F4F"/>
<path d="M169.068 24.5254V14.48C169.068 12.0611 167.926 10.8181 165.978 10.8181C164.029 10.8181 162.786 12.0611 162.786 14.48V24.5254H157.679V6.51767H162.786V9.07079C163.962 7.55904 165.474 6.1818 168.061 6.1818C171.924 6.1818 174.175 8.73492 174.175 12.8673V24.5254H169.068Z" fill="#4F4F4F"/>
<path d="M186.001 29.9679C183.078 29.9679 180.323 29.2962 178.039 28.0866L179.786 24.2566C181.634 25.2979 183.482 25.9031 185.867 25.9031C189.361 25.9031 191.007 24.2228 191.007 20.9976V20.1242C189.496 21.9385 187.849 23.047 185.128 23.047C180.928 23.047 177.132 19.9901 177.132 14.6479V14.5809C177.132 9.2054 180.995 6.1818 185.128 6.1818C187.916 6.1818 189.563 7.35779 190.94 8.86953V6.51767H196.046V20.4601C196.046 27.2469 192.687 29.9679 186.001 29.9679ZM191.007 14.5809C191.007 12.1282 189.092 10.4152 186.606 10.4152C184.12 10.4152 182.238 12.1282 182.238 14.5809V14.6479C182.238 17.134 184.12 18.8141 186.606 18.8141C189.092 18.8141 191.007 17.1006 191.007 14.6479V14.5809Z" fill="#4F4F4F"/>
<path d="M206.025 24.828C202.9 24.828 200.784 23.5845 200.784 19.4188V10.8851H198.633V6.51767H200.784V1.91467H205.89V6.51757H210.123V10.885H205.89V18.5786C205.89 19.7546 206.394 20.3259 207.537 20.3259C208.477 20.3259 209.317 20.0908 210.056 19.6875V23.7862C208.981 24.4245 207.738 24.828 206.025 24.828Z" fill="#4F4F4F"/>
<path d="M221.547 24.9289C215.969 24.9289 211.837 20.7964 211.837 15.6221V15.5551C211.837 10.3813 216.003 6.1818 221.614 6.1818C227.191 6.1818 231.323 10.3142 231.323 15.488V15.5551C231.323 20.7289 227.157 24.9289 221.547 24.9289ZM226.284 15.5551C226.284 12.9011 224.368 10.583 221.547 10.583C218.623 10.583 216.877 12.8336 216.877 15.488V15.5551C216.877 18.209 218.792 20.5276 221.614 20.5276C224.536 20.5276 226.284 18.2766 226.284 15.6221V15.5551Z" fill="#4F4F4F"/>
<path d="M245.736 24.5254V14.48C245.736 12.0611 244.594 10.8181 242.646 10.8181C240.697 10.8181 239.454 12.0611 239.454 14.48V24.5254H234.347V6.51767H239.454V9.07079C240.63 7.55904 242.141 6.1818 244.729 6.1818C248.592 6.1818 250.843 8.73492 250.843 12.8673V24.5254H245.736Z" fill="#4F4F4F"/>
<path d="M75.5337 41.5218C72.1404 41.5218 70.0579 43.5711 70.0579 47.8714V54.5237H64.9507V36.5159H70.0579V40.1441C71.0992 37.658 72.7789 36.0455 75.8025 36.1801V41.5218H75.5337Z" fill="#4F4F4F"/>
<path d="M94.5499 47.3006H82.0185C82.5222 49.6187 84.1349 50.828 86.4197 50.828C88.1327 50.828 89.3757 50.2905 90.7872 48.9804L93.7099 51.5673C92.0302 53.6504 89.6113 54.9271 86.3522 54.9271C80.9435 54.9271 76.9452 51.1306 76.9452 45.6204V45.5533C76.9452 40.4133 80.6071 36.1801 85.8485 36.1801C91.8623 36.1801 94.6172 40.85 94.6172 45.9568V46.0238C94.6172 46.5276 94.5832 46.8302 94.5499 47.3006ZM85.8484 40.2787C83.732 40.2787 82.3543 41.7905 81.9509 44.1086H89.645C89.3424 41.8243 87.9985 40.2787 85.8484 40.2787Z" fill="#4F4F4F"/>
<path d="M106.242 54.9271C100.833 54.9271 96.8682 50.7609 96.8682 45.6204V45.5533C96.8682 40.4133 100.799 36.1801 106.309 36.1801C109.702 36.1801 111.819 37.3223 113.499 39.2037L110.374 42.5635C109.232 41.3538 108.09 40.5813 106.275 40.5813C103.722 40.5813 101.908 42.8318 101.908 45.4863V45.5533C101.908 48.3081 103.688 50.5259 106.477 50.5259C108.19 50.5259 109.366 49.7866 110.609 48.6107L113.599 51.6343C111.852 53.5495 109.836 54.9271 106.242 54.9271Z" fill="#4F4F4F"/>
<path d="M124.586 54.9271C119.009 54.9271 114.876 50.7947 114.876 45.6204V45.5533C114.876 40.3795 119.043 36.1801 124.653 36.1801C130.23 36.1801 134.363 40.3125 134.363 45.4863V45.5533C134.363 50.7271 130.197 54.9271 124.586 54.9271ZM129.323 45.5533C129.323 42.8994 127.408 40.5813 124.586 40.5813C121.663 40.5813 119.916 42.8318 119.916 45.4863V45.5533C119.916 48.2073 121.831 50.5259 124.653 50.5259C127.576 50.5259 129.323 48.2749 129.323 45.6204V45.5533Z" fill="#4F4F4F"/>
<path d="M146.491 54.6578H141.855L134.766 36.5158H140.175L144.207 48.5768L148.272 36.5158H153.58L146.491 54.6578Z" fill="#4F4F4F"/>
<path d="M171.588 47.3006H159.057C159.56 49.6187 161.173 50.828 163.458 50.828C165.171 50.828 166.414 50.2905 167.825 48.9804L170.748 51.5673C169.068 53.6504 166.649 54.9271 163.39 54.9271C157.982 54.9271 153.983 51.1306 153.983 45.6204V45.5533C153.983 40.4133 157.645 36.1801 162.887 36.1801C168.9 36.1801 171.655 40.85 171.655 45.9568V46.0238C171.655 46.5276 171.621 46.8302 171.588 47.3006ZM162.887 40.2787C160.77 40.2787 159.392 41.7905 158.989 44.1086H166.683C166.381 41.8243 165.037 40.2787 162.887 40.2787Z" fill="#4F4F4F"/>
<path d="M185.363 41.5218C181.969 41.5218 179.886 43.5711 179.886 47.8714V54.5237H174.78V36.5159H179.886V40.1441C180.928 37.658 182.608 36.0455 185.631 36.1801V41.5218H185.363Z" fill="#4F4F4F"/>
<path d="M198.365 54.9604C196.987 58.6224 195.509 60 192.452 60C190.604 60 189.226 59.5295 187.916 58.757L189.63 55.0612C190.301 55.4647 191.141 55.7667 191.814 55.7667C192.687 55.7667 193.158 55.4979 193.594 54.5908L186.539 36.5159H191.948L196.046 48.7786L199.977 36.5159H205.286L198.365 54.9604Z" fill="#4F4F4F"/>
<path d="M227.762 54.5237V44.4783C227.762 42.0594 226.62 40.8163 224.672 40.8163C222.723 40.8163 221.48 42.0594 221.48 44.4783V54.5237H216.373V29.9983H221.48V39.069C222.655 37.5572 224.168 36.18 226.755 36.18C230.618 36.18 232.869 38.7331 232.869 42.8655V54.5236L227.762 54.5237Z" fill="#4F4F4F"/>
<path d="M253.363 47.3006H240.831C241.335 49.6187 242.948 50.828 245.232 50.828C246.945 50.828 248.188 50.2905 249.6 48.9804L252.523 51.5673C250.843 53.6504 248.424 54.9271 245.165 54.9271C239.756 54.9271 235.758 51.1306 235.758 45.6204V45.5533C235.758 40.4133 239.42 36.1801 244.661 36.1801C250.675 36.1801 253.43 40.85 253.43 45.9568V46.0238C253.43 46.5276 253.396 46.8302 253.363 47.3006ZM244.661 40.2787C242.545 40.2787 241.167 41.7905 240.764 44.1086H248.458C248.155 41.8243 246.811 40.2787 244.661 40.2787Z" fill="#4F4F4F"/>
<path d="M256.79 54.5237V29.9983H261.897V54.5237H256.79Z" fill="#4F4F4F"/>
<path d="M276.746 54.8596C274.024 54.8596 272.345 53.6165 271.135 52.1718V59.8992H266.029V36.5159H271.135V39.1028C272.379 37.4231 274.092 36.1801 276.746 36.1801C280.945 36.1801 284.943 39.4724 284.943 45.4863V45.5533C284.943 51.5672 281.012 54.8596 276.746 54.8596ZM279.837 45.4863C279.837 42.496 277.821 40.5137 275.435 40.5137C273.05 40.5137 271.068 42.496 271.068 45.4863V45.5533C271.068 48.5437 273.05 50.5259 275.435 50.5259C277.821 50.5259 279.837 48.5769 279.837 45.5533V45.4863Z" fill="#4F4F4F"/>
<path d="M296.669 54.5237V29.9983H301.776V54.5237H296.669Z" fill="#4F4F4F"/>
<path d="M306.008 34.5336V29.9983H311.384V34.5336H306.008ZM306.143 54.5237V36.5159H311.25V54.5237H306.143Z" fill="#4F4F4F"/>
<path d="M326.77 54.5237V44.4783C326.77 42.0594 325.628 40.8163 323.68 40.8163C321.731 40.8163 320.487 42.0594 320.487 44.4783V54.5237H315.381V36.5159H320.487V39.0691C321.664 37.5573 323.175 36.1801 325.763 36.1801C329.626 36.1801 331.877 38.7332 331.877 42.8656V54.5237H326.77Z" fill="#4F4F4F"/>
<path d="M352.372 47.3006H339.84C340.344 49.6187 341.956 50.828 344.241 50.828C345.954 50.828 347.197 50.2905 348.609 48.9804L351.531 51.5673C349.852 53.6504 347.432 54.9271 344.173 54.9271C338.765 54.9271 334.767 51.1306 334.767 45.6204V45.5533C334.767 40.4133 338.428 36.1801 343.67 36.1801C349.684 36.1801 352.438 40.85 352.438 45.9568V46.0238C352.438 46.5276 352.404 46.8302 352.372 47.3006ZM343.669 40.2787C341.553 40.2787 340.176 41.7905 339.772 44.1086H347.466C347.164 41.8243 345.82 40.2787 343.669 40.2787Z" fill="#4F4F4F"/>
<path d="M53.3641 32.463L51.2204 32.2767C43.6431 31.6184 37.352 28.1025 33.5058 22.3773C29.66 16.6511 28.7841 9.49751 31.0401 2.23415L31.6784 0.179382L33.8216 0.36568C41.3984 1.02398 47.6895 4.53982 51.5358 10.2651C55.3822 15.9908 56.258 23.1443 54.002 30.4077L53.3641 32.463ZM37.9392 19.3984C40.4928 23.1991 44.5318 25.7263 49.4606 26.6518C50.4667 21.7394 49.6549 17.044 47.1017 13.244C44.5486 9.44338 40.5096 6.91621 35.5812 5.99062C34.5746 10.9025 35.3871 15.5979 37.9392 19.3984Z" fill="#009C7A"/>
<path d="M34.1749 53.7706C30.9119 53.7706 27.5883 52.8486 24.438 51.0272L22.575 49.9506L23.2302 47.9012C25.0495 42.2133 28.8436 38.0018 33.9136 36.0439C38.9825 34.0845 44.6223 34.6524 49.794 37.6422L51.6571 38.7187L51.0018 40.7681C49.1825 46.456 45.3879 50.667 40.3185 52.6254C38.3372 53.3906 36.2685 53.7706 34.1749 53.7706ZM29.1621 47.4065C32.287 48.6664 35.4999 48.7603 38.3938 47.6424C41.2876 46.5246 43.6033 44.2964 45.0698 41.2629C41.9444 40.0025 38.7321 39.9096 35.8382 41.027C32.9443 42.1447 30.6287 44.373 29.1621 47.4065Z" fill="#009C7A"/>
<path d="M18.8295 35.3101C16.3772 35.3101 13.9772 34.8278 11.7097 33.857C6.13256 31.4683 2.14675 26.462 0.485839 19.759L0 17.7982L1.75472 16.7971C7.75164 13.3751 14.1263 12.8048 19.7024 15.1934C25.2786 17.5816 29.2644 22.5884 30.9262 29.2908L31.4125 31.2522L29.6573 32.2533C26.0991 34.2842 22.408 35.3101 18.8295 35.3101ZM6.28212 20.4889C7.74127 24.5046 10.3649 27.47 13.8123 28.9465C17.2586 30.4226 21.2168 30.2759 25.13 28.5615C23.6704 24.5458 21.0467 21.5799 17.5999 20.1039C14.1515 18.6268 10.1959 18.7753 6.28212 20.4889Z" fill="#009C7A"/>
</svg>
