<svg width="142" height="60" viewBox="0 0 142 60" fill="none" xmlns="http://www.w3.org/2000/svg">
<path d="M69.7652 22.2721L67.6627 18.9832L66.8668 19.824V22.2721H64.5844V11.3092H66.8668V17.1505L69.5399 14.2227H72.2733L69.2097 17.3913L72.3782 22.2721L69.7652 22.2721Z" fill="#001A4E"/>
<path d="M73.2183 13.3363V11.3091H75.621V13.3363H73.2183ZM73.2781 22.2721V14.2227H75.5609V22.2721H73.2781Z" fill="#001A4E"/>
<path d="M82.4982 22.2721V17.7814C82.4982 16.7005 81.9877 16.1449 81.1167 16.1449C80.2457 16.1449 79.6899 16.7005 79.6899 17.7814V22.2721H77.4075V14.2227H79.6899V15.3635C80.2155 14.6882 80.8914 14.0721 82.0476 14.0721C83.7747 14.0721 84.781 15.2135 84.781 17.061V22.2721H82.4982Z" fill="#001A4E"/>
<path d="M90.0656 24.7048C88.7591 24.7048 87.5277 24.4042 86.5067 23.8635L87.2875 22.1518C88.1135 22.6172 88.9394 22.8875 90.0055 22.8875C91.5675 22.8875 92.3033 22.1369 92.3033 20.695V20.3048C91.6274 21.1154 90.8916 21.611 89.6753 21.611C87.7981 21.611 86.1012 20.2444 86.1012 17.8567V17.8265C86.1012 15.424 87.828 14.0722 89.6753 14.0722C90.9218 14.0722 91.6576 14.5981 92.2734 15.2734V14.2227H94.5558V20.4548C94.5558 23.4881 93.0542 24.7048 90.0656 24.7048ZM92.3033 17.8264C92.3033 16.7307 91.4474 15.9647 90.336 15.9647C89.2246 15.9647 88.3839 16.7307 88.3839 17.8264V17.8566C88.3839 18.9678 89.2246 19.719 90.336 19.719C91.4474 19.719 92.3033 18.953 92.3033 17.8566V17.8264Z" fill="#001A4E"/>
<path d="M68.3837 34.8465C65.9658 34.8465 64.1938 32.9842 64.1938 30.6866V30.6564C64.1938 28.3589 65.9507 26.4663 68.4136 26.4663C69.9302 26.4663 70.8765 26.9774 71.6272 27.8181L70.2306 29.32C69.7201 28.7793 69.2096 28.4335 68.3985 28.4335C67.2571 28.4335 66.4463 29.4403 66.4463 30.6261V30.6564C66.4463 31.8878 67.2423 32.8792 68.4886 32.8792C69.2547 32.8792 69.7803 32.5483 70.3359 32.023L71.6723 33.3748C70.8915 34.2304 69.9905 34.8465 68.3837 34.8465Z" fill="#001A4E"/>
<path d="M76.5822 34.8465C74.0893 34.8465 72.2424 32.999 72.2424 30.6866V30.6564C72.2424 28.3434 74.1045 26.4663 76.6125 26.4663C79.1051 26.4663 80.9523 28.3138 80.9523 30.6262V30.6564C80.9523 32.9694 79.0903 34.8465 76.5822 34.8465ZM78.6998 30.6564C78.6998 29.47 77.8436 28.4336 76.5822 28.4336C75.2757 28.4336 74.4949 29.4404 74.4949 30.6262V30.6564C74.4949 31.8428 75.3508 32.8792 76.6125 32.8792C77.919 32.8792 78.6998 31.8731 78.6998 30.6866V30.6564Z" fill="#001A4E"/>
<path d="M87.3332 34.6663V33.525C86.8079 34.2003 86.132 34.8164 84.9755 34.8164C83.2486 34.8164 82.2424 33.675 82.2424 31.8281V26.617H84.5252V31.1071C84.5252 32.188 85.0356 32.7441 85.9067 32.7441C86.7777 32.7441 87.3332 32.188 87.3332 31.1071V26.617H89.6159V34.6663H87.3332Z" fill="#001A4E"/>
<path d="M96.4474 34.6663V30.1762C96.4474 29.0948 95.937 28.5392 95.066 28.5392C94.195 28.5392 93.6391 29.0947 93.6391 30.1762V34.6663H91.3567V26.617H93.6391V27.7583C94.1647 27.0824 94.8406 26.4664 95.9968 26.4664C97.724 26.4664 98.7302 27.6084 98.7302 29.4553V34.6664L96.4474 34.6663Z" fill="#001A4E"/>
<path d="M103.129 34.8015C101.732 34.8015 100.786 34.2453 100.786 32.3836V28.5688H99.8252V26.617H100.786V24.5596H103.069V26.617H104.961V28.5688H103.069V32.0083C103.069 32.5336 103.294 32.7891 103.805 32.7891C104.225 32.7891 104.601 32.6836 104.931 32.5033V34.3355C104.451 34.6212 103.895 34.8015 103.129 34.8015Z" fill="#001A4E"/>
<path d="M110.907 34.8614C110.291 36.4984 109.63 37.1139 108.264 37.1139C107.438 37.1139 106.822 36.904 106.237 36.5584L107.002 34.9065C107.303 35.0868 107.678 35.2219 107.979 35.2219C108.369 35.2219 108.579 35.1016 108.775 34.696L105.621 26.617H108.039L109.871 32.0985L111.628 26.617H114L110.907 34.8614Z" fill="#001A4E"/>
<path d="M60 0H0V60H60V0Z" fill="#001A4E"/>
<path d="M13.7288 50.2325V44.3518H14.9384V49.2608H17.0803V50.2325H13.7288Z" fill="white"/>
<path d="M18.207 50.2325V44.3518H19.4167V50.2325H18.207Z" fill="white"/>
<path d="M20.8451 44.3518H24.1966V45.3238H22.0547V46.7075H24.0705V47.6795H22.0547V50.2325H20.8451V44.3518Z" fill="white"/>
<path d="M28.6157 44.3518V45.3238H26.4738V46.7075H28.4896V47.6795H26.4738V49.2608H28.6997V50.2325H25.2642V44.3518H28.6157Z" fill="white"/>
<path d="M29.8346 50.2325V44.3518H31.0443V49.2608H33.1861V50.2325H29.8346Z" fill="white"/>
<path d="M34.3129 50.2325V44.3518H35.5225V50.2325H34.3129Z" fill="white"/>
<path d="M36.913 44.3518H38.3405L41.0676 48.297H41.086V44.3518H42.431V50.2325H40.9944L38.2764 46.2958H38.2581V50.2325H36.913V44.3518Z" fill="white"/>
<path d="M47.0574 44.3518V45.3238H44.9155V46.7075H46.9313V47.6795H44.9155V49.2608H47.1415V50.2325H43.7059V44.3518H47.0574Z" fill="white"/>
<path d="M2.64783 2.64768V57.3523H57.352V2.64768H2.64783ZM56.035 56.0352H3.9652V50.2325H7.07778V29.2322H3.9652V3.96506H56.035V56.0352Z" fill="white"/>
<path d="M26.7111 24.6547C27.8934 25.5835 29.2445 25.7313 30.5746 25.7313C31.9047 25.7313 33.4881 25.6047 34.7126 24.38C35.4093 23.6834 35.9373 22.6278 35.9373 21.2767C35.9373 20.3267 35.6416 19.5665 35.0082 18.9544C34.6072 18.5742 34.1004 18.2789 33.5093 18.1097C34.1004 17.9197 34.7551 17.5608 35.1983 17.0753C35.8526 16.3576 35.9795 15.5552 35.9795 14.8164C35.9795 13.7608 35.7473 12.9162 34.966 12.1774C33.9948 11.2271 32.7281 11.0161 31.4614 11.0161C30.3005 11.0161 28.8434 11.1849 27.7455 12.3253C27.0278 13.064 26.6689 14.0984 26.6689 15.0909C26.6689 15.7874 26.8381 16.3785 27.1969 16.9065C27.4714 17.3076 27.8512 17.6877 28.3579 17.9622C27.598 18.131 26.8167 18.532 26.3313 18.9966C25.7189 19.5877 25.2756 20.5799 25.2756 21.6991C25.2756 22.5434 25.5501 23.7256 26.7111 24.6547ZM30.1101 13.9086C30.4271 13.592 30.8491 13.4229 31.377 13.4229C31.8625 13.4229 32.3061 13.5707 32.5806 13.8243C32.8969 14.0984 33.0661 14.542 33.0661 14.943C33.0661 15.4285 32.876 15.9352 32.5593 16.2519C32.3061 16.5052 31.8625 16.7586 31.2292 16.7586C30.5746 16.7586 30.1948 16.4842 29.9625 16.231C29.7724 16.0197 29.5824 15.703 29.5824 15.2385C29.5824 14.7108 29.7937 14.2253 30.1101 13.9086ZM29.0757 19.9679C29.3714 19.6512 29.8781 19.3342 30.6802 19.3342C31.4402 19.3342 31.8625 19.6512 32.0104 19.7565C32.3061 19.9888 32.6437 20.4533 32.6437 21.1923C32.6437 21.8888 32.348 22.3533 32.0739 22.6066C31.6725 22.9867 31.0604 23.1555 30.5324 23.1555C30.026 23.1555 29.4768 23.0079 29.1179 22.67C28.8224 22.3955 28.5693 21.9522 28.5693 21.3611C28.5693 20.6221 28.8856 20.1576 29.0757 19.9679Z" fill="white"/>
<path d="M38.7997 24.6547C39.9823 25.5835 41.3334 25.7313 42.6635 25.7313C43.9936 25.7313 45.5769 25.6047 46.8014 24.38C47.4979 23.6834 48.0259 22.6278 48.0259 21.2767C48.0259 20.3267 47.7302 19.5665 47.0969 18.9544C46.6958 18.5742 46.1891 18.2789 45.5979 18.1097C46.1891 17.9197 46.8436 17.5608 47.2869 17.0753C47.9415 16.3576 48.0681 15.5552 48.0681 14.8164C48.0681 13.7608 47.8359 12.9162 47.0547 12.1774C46.0837 11.2271 44.8167 11.0161 43.5501 11.0161C42.389 11.0161 40.9323 11.1849 39.8344 12.3253C39.1164 13.064 38.7575 14.0984 38.7575 15.0909C38.7575 15.7874 38.9266 16.3785 39.2855 16.9065C39.56 17.3076 39.9398 17.6877 40.4465 17.9622C39.6866 18.131 38.9054 18.532 38.4199 18.9966C37.8075 19.5877 37.3643 20.5799 37.3643 21.6991C37.3643 22.5434 37.6387 23.7256 38.7997 24.6547ZM42.199 13.9086C42.5156 13.592 42.9379 13.4229 43.4657 13.4229C43.9511 13.4229 44.3944 13.5707 44.6691 13.8243C44.9855 14.0984 45.1546 14.542 45.1546 14.943C45.1546 15.4285 44.9646 15.9352 44.6479 16.2519C44.3944 16.5052 43.9511 16.7586 43.3178 16.7586C42.6635 16.7586 42.2834 16.4842 42.0511 16.231C41.8611 16.0197 41.671 15.703 41.671 15.2385C41.671 14.7108 41.8823 14.2253 42.199 13.9086ZM41.1642 19.9679C41.46 19.6512 41.9667 19.3342 42.7689 19.3342C43.5288 19.3342 43.9511 19.6512 44.099 19.7565C44.3944 19.9888 44.7323 20.4533 44.7323 21.1923C44.7323 21.8888 44.4369 22.3533 44.1624 22.6066C43.761 22.9867 43.149 23.1555 42.621 23.1555C42.1146 23.1555 41.5656 23.0079 41.2067 22.67C40.9111 22.3955 40.6578 21.9522 40.6578 21.3611C40.6578 20.6221 40.9745 20.1576 41.1642 19.9679Z" fill="white"/>
<path d="M18.5275 20.7067L14.7272 24.9713L14.7305 24.9719L14.0798 25.6941L17.8729 25.7102L18.532 24.9719L21.9265 21.1712C23.003 19.9677 23.5945 19.2497 23.9534 18.6166C24.4598 17.7507 24.7977 16.6741 24.7977 15.5762C24.7977 13.8872 24.0587 12.8738 23.4676 12.3252C22.2853 11.2273 20.6385 11.016 19.3718 11.016C17.8942 11.016 16.2896 11.2904 15.0651 12.4517C14.2839 13.1908 13.5449 14.3939 13.5449 16.273C13.5449 17.4131 13.7982 18.5532 14.7694 19.4819C15.7194 20.411 17.113 20.8333 18.5275 20.7067ZM17.5141 14.3517C17.8729 13.972 18.485 13.6762 19.2875 13.6762C20.1318 13.6762 20.6385 13.972 20.9343 14.2464C21.3563 14.6475 21.5888 15.2386 21.5888 15.8298C21.5888 16.4418 21.3144 17.1596 20.8708 17.6032C20.4697 18.0042 19.8151 18.2365 19.1609 18.2365C18.5484 18.2365 17.8729 18.0042 17.4719 17.6032C17.0917 17.223 16.8807 16.6109 16.8807 16.1042C16.8807 15.534 17.0917 14.7951 17.5141 14.3517Z" fill="white"/>
<path d="M16.0856 30.7467C16.0856 30.1882 15.8846 29.8007 15.2588 29.8007C14.7077 29.8007 14.3798 30.0986 14.3798 30.6649C14.3798 32.162 16.8902 31.2682 16.8902 33.2121C16.8902 34.4412 15.989 34.7912 15.2366 34.7912C13.9926 34.7912 13.6277 34.1506 13.6277 33.0184H14.2832C14.2832 33.6143 14.3205 34.2549 15.2813 34.2549C15.8025 34.2549 16.2048 33.8826 16.2048 33.3164C16.2048 31.8119 13.6947 32.6832 13.6947 30.7319C13.6947 30.24 13.9031 29.2644 15.2514 29.2644C16.2644 29.2644 16.7262 29.7708 16.741 30.7467H16.0856Z" fill="white"/>
<path d="M19.4646 29.3688H20.1201V33.1077C20.1201 33.89 20.3736 34.2549 21.0213 34.2549C21.7215 34.2549 21.9302 33.8526 21.9302 33.1077V29.3688H22.5857V33.1077C22.5857 34.1284 22.0642 34.7912 21.0213 34.7912C19.9561 34.7912 19.4646 34.2028 19.4646 33.1077V29.3688Z" fill="white"/>
<path d="M25.3611 29.3688H26.0166V34.6869H25.3611V29.3688Z" fill="white"/>
<path d="M32.1078 32.8619C32.0483 33.8675 31.6534 34.7912 30.4916 34.7912C28.9793 34.7912 28.7783 33.3686 28.7783 32.0277C28.7783 30.6868 29.0241 29.2644 30.4916 29.2644C31.5789 29.2644 32.0334 29.8751 32.0631 30.918H31.378C31.3628 30.3148 31.1692 29.8007 30.4916 29.8007C29.5826 29.8007 29.4634 30.7988 29.4634 32.0277C29.4634 33.2566 29.5826 34.2549 30.4916 34.2549C31.2884 34.2549 31.4002 33.51 31.4224 32.8619H32.1078Z" fill="white"/>
<path d="M34.6897 29.3688H35.3452V34.6869H34.6897V29.3688Z" fill="white"/>
<path d="M38.2484 29.3688H39.6711C41.3247 29.3688 41.5334 30.5605 41.5334 32.0277C41.5334 33.3686 41.1981 34.6869 39.7381 34.6869H38.2484V29.3688ZM38.9039 34.1506H39.5893C40.7214 34.1506 40.848 32.9885 40.848 32.0351C40.848 31.0073 40.781 29.9051 39.5893 29.9051H38.9039V34.1506Z" fill="white"/>
<path d="M44.2937 29.3688H47.0422V29.9498H44.9492V31.6183H46.923V32.199H44.9492V34.1058H47.1317V34.6869H44.2937V29.3688Z" fill="white"/>
<path d="M24.1075 40.3151C24.0478 41.3207 23.653 42.2444 22.4911 42.2444C20.9789 42.2444 20.778 40.8217 20.778 39.4809C20.778 38.14 21.0237 36.7176 22.4911 36.7176C23.5786 36.7176 24.033 37.3283 24.0627 38.3712H23.3776C23.3624 37.768 23.1689 37.2539 22.4911 37.2539C21.5825 37.2539 21.4634 38.2521 21.4634 39.4809C21.4634 40.7096 21.5825 41.7082 22.4911 41.7082C23.288 41.7082 23.3998 40.9632 23.422 40.3151H24.1075Z" fill="white"/>
<path d="M26.4435 36.822H28.1641C28.9983 36.822 29.5272 37.3135 29.5272 38.1552C29.5272 38.7362 29.3263 39.3469 28.7078 39.496V39.5108C29.1697 39.563 29.4303 39.9428 29.4602 40.3972L29.505 41.3059C29.5346 41.8943 29.6316 42.0432 29.7878 42.1401H28.9983C28.8866 42.0283 28.8344 41.6335 28.8196 41.3729L28.7748 40.546C28.7229 39.8162 28.3206 39.7714 27.9854 39.7714H27.099V42.1401H26.4435V36.822ZM27.099 39.2351H27.747C28.1345 39.2351 28.8421 39.2351 28.8421 38.2073C28.8421 37.6858 28.492 37.3583 27.881 37.3583H27.099V39.2351Z" fill="white"/>
<path d="M32.0349 36.822H32.6904V42.1401H32.0349V36.822Z" fill="white"/>
<path d="M37.5378 38.1999C37.5378 37.6414 37.3368 37.2539 36.7109 37.2539C36.1598 37.2539 35.832 37.5518 35.832 38.1181C35.832 39.6152 38.3424 38.7214 38.3424 40.6652C38.3424 41.8943 37.4411 42.2444 36.6887 42.2444C35.4448 42.2444 35.0798 41.6038 35.0798 40.4716H35.7353C35.7353 41.0675 35.7726 41.7082 36.7335 41.7082C37.2547 41.7082 37.6569 41.3358 37.6569 40.7696C37.6569 39.2651 35.1469 40.1363 35.1469 38.1851C35.1469 37.6932 35.3552 36.7176 36.7035 36.7176C37.7165 36.7176 38.1784 37.224 38.1932 38.1999H37.5378Z" fill="white"/>
<path d="M40.7306 36.822H41.3861V42.1401H40.7306V36.822Z" fill="white"/>
<path d="M46.2338 38.1999C46.2338 37.6414 46.0328 37.2539 45.407 37.2539C44.8559 37.2539 44.5282 37.5518 44.5282 38.1181C44.5282 39.6152 47.0384 38.7214 47.0384 40.6652C47.0384 41.8943 46.1368 42.2444 45.3847 42.2444C44.1408 42.2444 43.7759 41.6038 43.7759 40.4716H44.4313C44.4313 41.0675 44.4684 41.7082 45.4295 41.7082C45.9507 41.7082 46.353 41.3358 46.353 40.7696C46.353 39.2651 43.8428 40.1363 43.8428 38.1851C43.8428 37.6932 44.0516 36.7176 45.3996 36.7176C46.4125 36.7176 46.8744 37.224 46.8892 38.1999H46.2338Z" fill="white"/>
<path d="M16.4076 40.6647C16.5119 40.3966 16.579 40.0987 16.6163 39.6294H17.197C17.197 40.0166 16.9661 40.9178 16.7651 41.1787L17.4505 42.1395H16.7429L16.3854 41.6406C15.9757 42.0278 15.6478 42.2438 15.0744 42.2438C13.7783 42.2438 13.4952 41.2531 13.4952 40.769C13.4952 40.2179 13.7858 39.7261 14.2177 39.3911L14.6052 39.1005L14.4412 38.8325C14.2476 38.5343 14.0537 38.2366 14.0537 37.864C14.0537 37.2385 14.5529 36.8214 15.1563 36.8214C15.8265 36.8214 16.281 37.1119 16.281 37.8343C16.281 38.3558 15.9161 38.6908 15.5511 38.9962L15.3572 39.1601L16.4076 40.6647ZM14.9105 39.5028C14.486 39.756 14.1506 40.1583 14.1506 40.7168C14.1506 41.3649 14.6052 41.7075 15.1263 41.7075C15.5437 41.7075 15.8265 41.4841 16.0797 41.1935L14.9105 39.5028ZM15.2232 38.6312C15.4616 38.4003 15.7 38.1919 15.7 37.8343C15.7 37.529 15.4764 37.3129 15.1637 37.3129C14.8435 37.3129 14.6348 37.529 14.6348 37.8343C14.6348 38.0727 14.7913 38.3407 14.9552 38.5865L15.0818 38.7652L15.2232 38.6312Z" fill="white"/>
<path d="M68.4109 45.1721L67.9793 44.1132H65.983L65.5513 45.1721H64.4924L66.5157 40.4176H67.4736L69.4966 45.1721H68.4109ZM66.9811 41.665L66.3538 43.196H67.6081L66.9811 41.665Z" fill="#001A4E"/>
<path d="M73.9327 45.2391C73.2177 45.2391 72.4961 44.9901 71.9296 44.4838L72.5432 43.7486C72.968 44.0996 73.4133 44.3225 73.9529 44.3225C74.3777 44.3225 74.6341 44.1535 74.6341 43.8772V43.8636C74.6341 43.6003 74.4723 43.4657 73.6831 43.2635C72.7321 43.0204 72.1184 42.7572 72.1184 41.8204V41.8061C72.1184 40.95 72.8062 40.3831 73.7709 40.3831C74.4587 40.3831 75.0457 40.599 75.5245 40.9838L74.9849 41.7658C74.5666 41.4759 74.1551 41.301 73.7572 41.301C73.3594 41.301 73.1504 41.4824 73.1504 41.7125V41.7255C73.1504 42.0362 73.3526 42.137 74.1687 42.3457C75.1262 42.5959 75.6658 42.9398 75.6658 43.7628V43.7758C75.6658 44.7132 74.9511 45.2391 73.9327 45.2391Z" fill="#001A4E"/>
<path d="M76.5726 45.1721V40.4508H80.1336V41.3745H77.6046V42.3327H79.8301V43.2564H77.6046V44.2478H80.1675V45.1721H76.5726Z" fill="#001A4E"/>
<path d="M83.9609 45.1721L82.9491 43.6614H82.1332V45.1721H81.0945V40.4508H83.2527C84.3656 40.4508 85.0332 41.0377 85.0332 42.0089V42.022C85.0332 42.7845 84.6217 43.2635 84.0217 43.4859L85.1749 45.1721L83.9609 45.1721ZM83.9811 42.0629C83.9811 41.6176 83.6707 41.3887 83.165 41.3887H82.1333V42.7441H83.1851C83.6912 42.7441 83.9811 42.4744 83.9811 42.0765V42.0629Z" fill="#001A4E"/>
<path d="M88.2601 45.2059H87.3429L85.4343 40.4508H86.5807L87.8152 43.7758L89.0493 40.4508H90.169L88.2601 45.2059Z" fill="#001A4E"/>
<path d="M90.9478 45.1721V40.4508H91.9865V45.1721H90.9478Z" fill="#001A4E"/>
<path d="M95.3804 45.2528C93.9909 45.2528 92.9592 44.1802 92.9592 42.8248V42.8118C92.9592 41.4694 93.9707 40.3701 95.421 40.3701C96.311 40.3701 96.844 40.6666 97.2821 41.0982L96.6213 41.8607C96.257 41.5299 95.8861 41.3277 95.4142 41.3277C94.6182 41.3277 94.0448 41.9888 94.0448 42.7982V42.8118C94.0448 43.6205 94.6048 44.2953 95.4142 44.2953C95.9537 44.2953 96.2842 44.0795 96.6551 43.7421L97.3159 44.4104C96.8303 44.9292 96.2908 45.2528 95.3804 45.2528Z" fill="#001A4E"/>
<path d="M98.1489 45.1721V40.4508H101.71V41.3745H99.1809V42.3327H101.406V43.2564H99.1809V44.2478H101.744V45.1721H98.1489Z" fill="#001A4E"/>
<path d="M106.988 45.2528C105.532 45.2528 104.486 44.1671 104.486 42.8248V42.8118C104.486 41.4694 105.545 40.3701 107.002 40.3701C108.459 40.3701 109.504 41.4558 109.504 42.7981V42.8118C109.504 44.1535 108.445 45.2528 106.988 45.2528ZM108.418 42.8118C108.418 42.0018 107.825 41.3277 106.988 41.3277C106.152 41.3277 105.572 41.9888 105.572 42.7982V42.8118C105.572 43.6205 106.166 44.2953 107.002 44.2953C107.838 44.2953 108.418 43.6342 108.418 42.8249V42.8118Z" fill="#001A4E"/>
<path d="M111.47 41.3953V42.4003H113.723V43.3442H111.47V45.1721H110.432V40.4508H114.027V41.3953H111.47Z" fill="#001A4E"/>
<path d="M67.1091 52.0381C65.7196 52.0381 64.688 50.9655 64.688 49.6101V49.5964C64.688 48.2547 65.6995 47.1554 67.1498 47.1554C68.0397 47.1554 68.5728 47.4519 69.0109 47.8835L68.3501 48.646C67.9857 48.3152 67.6149 48.113 67.1429 48.113C66.3469 48.113 65.7736 48.7741 65.7736 49.5828V49.5965C65.7736 50.4058 66.3336 51.0805 67.1429 51.0805C67.6825 51.0805 68.013 50.8647 68.3838 50.5274L69.0447 51.195C68.5591 51.7144 68.0196 52.0381 67.1091 52.0381Z" fill="#001A4E"/>
<path d="M72.7442 51.9568L71.7324 50.4461H70.9166V51.9568H69.8778V47.2361H72.036C73.1489 47.2361 73.8165 47.823 73.8165 48.7942V48.8073C73.8165 49.5698 73.4051 50.0488 72.805 50.2712L73.9582 51.9568H72.7442ZM72.7644 48.8476C72.7644 48.4029 72.454 48.1734 71.9483 48.1734H70.9166V49.5294H71.9684C72.4745 49.5294 72.7644 49.2591 72.7644 48.8618V48.8476Z" fill="#001A4E"/>
<path d="M74.8042 51.9568V47.2361H75.843V51.9568H74.8042Z" fill="#001A4E"/>
<path d="M78.7042 52.0244C77.9892 52.0244 77.2676 51.7754 76.701 51.2691L77.3147 50.5339C77.7398 50.8849 78.1848 51.1072 78.7243 51.1072C79.1492 51.1072 79.4056 50.9388 79.4056 50.6619V50.6489C79.4056 50.3856 79.2438 50.2505 78.4546 50.0488C77.5036 49.8057 76.8899 49.5425 76.8899 48.6051V48.5914C76.8899 47.7352 77.578 47.1684 78.5424 47.1684C79.2302 47.1684 79.8168 47.3843 80.2959 47.7685L79.7564 48.5511C79.338 48.2612 78.9269 48.0857 78.5287 48.0857C78.1309 48.0857 77.9219 48.2677 77.9219 48.4972V48.5108C77.9219 48.8209 78.1241 48.9223 78.9402 49.131C79.898 49.3806 80.4376 49.7251 80.4376 50.5475V50.5611C80.4376 51.4985 79.7226 52.0244 78.7042 52.0244Z" fill="#001A4E"/>
<path d="M81.3912 51.9568V47.2361H82.43V51.9568H81.3912Z" fill="#001A4E"/>
<path d="M85.2911 52.0244C84.5761 52.0244 83.8545 51.7754 83.288 51.2691L83.9016 50.5339C84.3264 50.8849 84.7717 51.1072 85.3113 51.1072C85.7361 51.1072 85.9925 50.9388 85.9925 50.6619V50.6489C85.9925 50.3856 85.8307 50.2505 85.0415 50.0488C84.0905 49.8057 83.4768 49.5425 83.4768 48.6051V48.5914C83.4768 47.7352 84.1646 47.1684 85.1293 47.1684C85.8171 47.1684 86.4041 47.3843 86.8829 47.7685L86.3433 48.5511C85.925 48.2612 85.5135 48.0857 85.1156 48.0857C84.7178 48.0857 84.5088 48.2677 84.5088 48.4972V48.5108C84.5088 48.8209 84.711 48.9223 85.5271 49.131C86.4846 49.3806 87.0242 49.7251 87.0242 50.5475V50.5611C87.0242 51.4985 86.3095 52.0244 85.2911 52.0244Z" fill="#001A4E"/>
<path d="M92.168 52.0381C90.7785 52.0381 89.7468 50.9655 89.7468 49.6101V49.5964C89.7468 48.2547 90.7583 47.1554 92.2086 47.1554C93.0986 47.1554 93.6316 47.4519 94.0697 47.8835L93.4089 48.646C93.0446 48.3152 92.6737 48.113 92.2018 48.113C91.4058 48.113 90.8324 48.7741 90.8324 49.5828V49.5965C90.8324 50.4058 91.3924 51.0805 92.2018 51.0805C92.7413 51.0805 93.0718 50.8647 93.4427 50.5274L94.1035 51.195C93.6179 51.7144 93.0784 52.0381 92.168 52.0381Z" fill="#001A4E"/>
<path d="M97.0945 52.0381C95.6377 52.0381 94.5924 50.9524 94.5924 49.6101V49.5964C94.5924 48.2547 95.6511 47.1554 97.1079 47.1554C98.5646 47.1554 99.6102 48.2411 99.6102 49.5828V49.5964C99.6102 50.9388 98.5513 52.0381 97.0945 52.0381ZM98.5243 49.5964C98.5243 48.7871 97.9308 48.113 97.0945 48.113C96.2582 48.113 95.6783 48.7741 95.6783 49.5828V49.5964C95.6783 50.4058 96.2718 51.0805 97.1079 51.0805C97.9444 51.0805 98.5243 50.4194 98.5243 49.61V49.5964Z" fill="#001A4E"/>
<path d="M103.849 51.9568L101.563 48.9555V51.9568H100.538V47.2361H101.496L103.708 50.1425V47.2361H104.733V51.9568H103.849Z" fill="#001A4E"/>
<path d="M109.181 51.9568L106.895 48.9555V51.9568H105.87V47.2361H106.827L109.04 50.1425V47.2361H110.065V51.9568H109.181Z" fill="#001A4E"/>
<path d="M111.201 51.9568V47.2361H114.762V48.1598H112.233V49.118H114.459V50.0417H112.233V51.0331H114.796V51.9568H111.201Z" fill="#001A4E"/>
<path d="M117.935 52.0381C116.546 52.0381 115.514 50.9655 115.514 49.6101V49.5964C115.514 48.2547 116.526 47.1554 117.976 47.1554C118.866 47.1554 119.399 47.4519 119.837 47.8835L119.176 48.646C118.812 48.3152 118.441 48.113 117.969 48.113C117.173 48.113 116.6 48.7741 116.6 49.5828V49.5965C116.6 50.4058 117.16 51.0805 117.969 51.0805C118.509 51.0805 118.839 50.8647 119.21 50.5274L119.871 51.195C119.385 51.7144 118.846 52.0381 117.935 52.0381Z" fill="#001A4E"/>
<path d="M122.842 48.1936V51.9568H121.803V48.1936H120.367V47.2361H124.279V48.1936H122.842Z" fill="#001A4E"/>
<path d="M125.124 51.9568V47.2361H126.163V51.9568H125.124Z" fill="#001A4E"/>
<path d="M129.638 52.0381C128.181 52.0381 127.136 50.9524 127.136 49.6101V49.5964C127.136 48.2547 128.195 47.1554 129.652 47.1554C131.108 47.1554 132.154 48.2411 132.154 49.5828V49.5964C132.154 50.9388 131.095 52.0381 129.638 52.0381ZM131.068 49.5964C131.068 48.7871 130.474 48.113 129.638 48.113C128.802 48.113 128.221 48.7741 128.221 49.5828V49.5964C128.221 50.4058 128.815 51.0805 129.652 51.0805C130.488 51.0805 131.068 50.4194 131.068 49.61V49.5964Z" fill="#001A4E"/>
<path d="M136.393 51.9568L134.107 48.9555V51.9568H133.082V47.2361H134.039L136.251 50.1425V47.2361H137.276V51.9568H136.393Z" fill="#001A4E"/>
<path d="M140.092 52.0244C139.377 52.0244 138.656 51.7754 138.089 51.2691L138.703 50.5339C139.128 50.8849 139.573 51.1072 140.113 51.1072C140.537 51.1072 140.794 50.9388 140.794 50.6619V50.6489C140.794 50.3856 140.632 50.2505 139.843 50.0488C138.892 49.8057 138.278 49.5425 138.278 48.6051V48.5914C138.278 47.7352 138.966 47.1684 139.931 47.1684C140.618 47.1684 141.205 47.3843 141.684 47.7685L141.145 48.5511C140.726 48.2612 140.315 48.0857 139.917 48.0857C139.519 48.0857 139.31 48.2677 139.31 48.4972V48.5108C139.31 48.8209 139.512 48.9223 140.328 49.131C141.286 49.3806 141.826 49.7251 141.826 50.5475V50.5611C141.826 51.4985 141.111 52.0244 140.092 52.0244Z" fill="#001A4E"/>
</svg>
