<svg width="236" height="60" viewBox="0 0 236 60" fill="none" xmlns="http://www.w3.org/2000/svg">
<path d="M41.7499 57.9921L24.2441 40.4873C19.7101 35.9523 19.7101 28.5746 24.2436 24.0396C26.4403 21.8428 29.3612 20.6332 32.4675 20.6332C35.5738 20.6332 38.4946 21.8427 40.6909 24.0396L41.7429 25.0915L42.8049 24.0294C45.0013 21.8336 47.9215 20.6231 51.0278 20.6231H51.0294C54.1357 20.6231 57.0554 21.8326 59.2517 24.0284C61.4485 26.2252 62.6586 29.1455 62.6586 32.2527C62.6586 35.36 61.4486 38.2803 59.2517 40.4762L41.7499 57.9921ZM32.4675 26.0656C30.8123 26.0656 29.2557 26.7102 28.085 27.8815C25.6694 30.2976 25.6694 34.2294 28.0855 36.6454L41.7499 50.3104L55.4107 36.6344C56.5813 35.4642 57.226 33.908 57.226 32.2528C57.226 30.5966 56.5814 29.0405 55.4107 27.8703C54.2401 26.6992 52.6838 26.0555 51.0281 26.0555C49.3724 26.0555 47.8163 26.7001 46.6461 27.8713L41.7426 32.7732L36.8499 27.8815C35.6793 26.7103 34.1228 26.0656 32.4675 26.0656Z" fill="#6D2077"/>
<path d="M12.7781 35.3742C11.278 35.3742 10.0619 34.1586 10.0619 32.658C10.0619 20.2169 20.1834 10.0958 32.6247 10.0958C34.1247 10.0958 35.3409 11.3114 35.3409 12.812C35.3409 14.3126 34.1247 15.5282 32.6247 15.5282C23.1791 15.5282 15.4943 23.213 15.4943 32.658C15.4943 34.1586 14.2782 35.3742 12.7781 35.3742Z" fill="#6D2077"/>
<path d="M2.7162 35.3409C1.21613 35.3409 0 34.1253 0 32.6247C0 14.635 14.6354 0 32.6247 0C34.1248 0 35.3409 1.21562 35.3409 2.7162C35.3409 4.21679 34.1248 5.4324 32.6247 5.4324C17.6311 5.4324 5.4324 17.6311 5.4324 32.6247C5.4324 34.1253 4.21627 35.3409 2.7162 35.3409Z" fill="#6D2077"/>
<path d="M79.9106 59.8797C76.1794 59.8797 73.6522 58.3952 73.6522 53.4206V43.2307H71.0846V38.0146H73.6522V32.5186H79.7506V38.0146H84.8056V43.2307H79.7506V52.4181C79.7506 53.8217 80.3523 54.5038 81.716 54.5038C82.8396 54.5038 83.8426 54.2228 84.7252 53.7419V58.6367C83.4414 59.3986 81.9568 59.8797 79.9106 59.8797Z" fill="#4F4F4F"/>
<path d="M107.871 50.8934H92.906C93.5078 53.6612 95.4338 55.1062 98.1621 55.1062C100.208 55.1062 101.692 54.4635 103.377 52.8993L106.868 55.9884C104.862 58.4762 101.973 60.0001 98.0817 60.0001C91.6221 60.0001 86.8481 55.467 86.8481 48.8877V48.8069C86.8481 42.6692 91.2211 37.6136 97.48 37.6136C104.661 37.6136 107.951 43.1905 107.951 49.2889V49.3686C107.951 49.9709 107.911 50.3317 107.871 50.8934ZM97.48 42.5084C94.9523 42.5084 93.3072 44.3141 92.8262 47.0819H102.014C101.652 44.3535 100.048 42.5084 97.48 42.5084Z" fill="#4F4F4F"/>
<path d="M131.657 50.8934H116.693C117.295 53.6612 119.22 55.1062 121.949 55.1062C123.994 55.1062 125.479 54.4635 127.164 52.8993L130.654 55.9884C128.648 58.4762 125.76 60.0001 121.868 60.0001C115.409 60.0001 110.635 55.467 110.635 48.8877V48.8069C110.635 42.6692 115.008 37.6136 121.267 37.6136C128.448 37.6136 131.738 43.1905 131.738 49.2889V49.3686C131.738 49.9709 131.697 50.3317 131.657 50.8934ZM121.267 42.5084C118.739 42.5084 117.094 44.3141 116.613 47.0819H125.8C125.439 44.3535 123.834 42.5084 121.267 42.5084Z" fill="#4F4F4F"/>
<path d="M149.064 59.5189V47.5234C149.064 44.6344 147.701 43.1499 145.373 43.1499C143.046 43.1499 141.562 44.6344 141.562 47.5234V59.5189H135.464V38.0147H141.562V41.0644C142.966 39.2587 144.772 37.6135 147.861 37.6135C152.475 37.6135 155.163 40.6632 155.163 45.5974V59.5189H149.064Z" fill="#4F4F4F"/>
<path d="M167.954 59.5189V30.2319H174.052V59.5189H167.954Z" fill="#4F4F4F"/>
<path d="M179.104 35.6481V30.2319H185.524V35.6481H179.104ZM179.265 59.5189V38.0147H185.363V59.5189H179.265Z" fill="#4F4F4F"/>
<path d="M203.895 59.5189V47.5234C203.895 44.6344 202.532 43.1499 200.205 43.1499C197.877 43.1499 196.393 44.6344 196.393 47.5234V59.5189H190.295V38.0147H196.393V41.0644C197.798 39.2587 199.603 37.6135 202.692 37.6135C207.306 37.6135 209.994 40.6632 209.994 45.5974V59.5189H203.895Z" fill="#4F4F4F"/>
<path d="M228.324 59.5189L222.707 50.7327L220.58 52.9791V59.5189H214.482V30.2319H220.58V45.8379L227.722 38.0147H235.024L226.839 46.4796L235.304 59.5191L228.324 59.5189Z" fill="#4F4F4F"/>
<path d="M84.5195 26.3586H81.3527L78.9719 18.7537L76.5448 26.3586H73.4011L69.587 13.876H73.1464L75.1346 21.389L77.4693 13.8294H80.4973L82.8552 21.4111L84.8893 13.8759H88.3795L84.5195 26.3586Z" fill="#4F4F4F"/>
<path d="M96.8425 26.2657V24.9248C95.9876 25.8726 94.8084 26.4971 93.0981 26.4971C90.7634 26.4971 88.8448 25.1562 88.8448 22.7057V22.6603C88.8448 19.9551 90.9022 18.7072 93.8377 18.7072C95.0861 18.7072 95.9875 18.9154 96.8657 19.2155V19.0073C96.8657 17.5512 95.9643 16.7428 94.2076 16.7428C92.8672 16.7428 91.9194 16.9964 90.7865 17.4128L89.9085 14.7319C91.2722 14.1307 92.6126 13.7377 94.7164 13.7377C98.5532 13.7377 100.241 15.7253 100.241 19.0771V26.2658L96.8425 26.2657ZM96.9122 21.2729C96.3109 20.996 95.5254 20.8111 94.6699 20.8111C93.1674 20.8111 92.2427 21.4113 92.2427 22.5208V22.5672C92.2427 23.5151 93.0289 24.0698 94.1617 24.0698C95.8027 24.0698 96.9122 23.1684 96.9122 21.8972V21.2729Z" fill="#4F4F4F"/>
<path d="M107.154 26.4971C105.421 26.4971 103.479 25.9191 101.837 24.6246L103.34 22.3136C104.681 23.2837 106.091 23.793 107.247 23.793C108.264 23.793 108.726 23.4232 108.726 22.8683V22.8219C108.726 22.059 107.524 21.8043 106.16 21.389C104.426 20.8797 102.462 20.0713 102.462 17.6673V17.6208C102.462 15.1017 104.496 13.691 106.992 13.691C108.564 13.691 110.274 14.2225 111.615 15.1239L110.274 17.5511C109.049 16.8347 107.825 16.3961 106.923 16.3961C106.068 16.3961 105.629 16.7659 105.629 17.251V17.2975C105.629 17.9907 106.807 18.314 108.148 18.7769C109.882 19.3549 111.893 20.1865 111.893 22.4521V22.4985C111.893 25.2491 109.835 26.4971 107.154 26.4971Z" fill="#4F4F4F"/>
<path d="M121.787 26.2657V19.355C121.787 17.6907 121.001 16.8349 119.66 16.8349C118.32 16.8349 117.465 17.6907 117.465 19.355V26.2657H113.951V9.39154H117.465V15.6333C118.274 14.5925 119.314 13.6446 121.094 13.6446C123.752 13.6446 125.3 15.4018 125.3 18.2454V26.2657H121.787Z" fill="#4F4F4F"/>
<path d="M127.961 12.5129V9.39154H131.659V12.5129H127.961ZM128.053 26.2657V13.8761H131.567V26.2657H128.053Z" fill="#4F4F4F"/>
<path d="M142.246 26.2657V19.355C142.246 17.6907 141.461 16.8349 140.12 16.8349C138.779 16.8349 137.924 17.6907 137.924 19.355V26.2657H134.411V13.8761H137.924V15.6333C138.733 14.5925 139.773 13.6446 141.553 13.6446C144.211 13.6446 145.76 15.4018 145.76 18.2454V26.2657H142.246Z" fill="#4F4F4F"/>
<path d="M153.898 30.0106C151.888 30.0106 149.992 29.5477 148.42 28.7161L149.622 26.0807C150.894 26.7972 152.165 27.2134 153.806 27.2134C156.21 27.2134 157.343 26.0574 157.343 23.8384V23.2382C156.302 24.4862 155.17 25.2491 153.298 25.2491C150.408 25.2491 147.796 23.1452 147.796 19.47V19.4236C147.796 15.7252 150.454 13.6445 153.298 13.6445C155.216 13.6445 156.348 14.4539 157.296 15.4937V13.8759H160.81V23.4685C160.81 28.138 158.498 30.0106 153.898 30.0106ZM157.343 19.4237C157.343 17.7361 156.025 16.558 154.314 16.558C152.603 16.558 151.31 17.7362 151.31 19.4237V19.4701C151.31 21.1809 152.604 22.3359 154.314 22.3359C156.024 22.3359 157.343 21.1576 157.343 19.4701V19.4237Z" fill="#4F4F4F"/>
<path d="M167.677 26.4739C165.527 26.4739 164.071 25.619 164.071 22.7522V16.8813H162.592V13.8761H164.071V10.7093H167.584V13.8761H170.497V16.8813H167.584V22.1742C167.584 22.9836 167.931 23.3767 168.717 23.3767C169.364 23.3767 169.942 23.2151 170.451 22.9372V25.7574C169.711 26.197 168.856 26.4739 167.677 26.4739Z" fill="#4F4F4F"/>
<path d="M178.357 26.5435C174.521 26.5435 171.677 23.7001 171.677 20.14V20.0946C171.677 16.5347 174.543 13.6446 178.404 13.6446C182.241 13.6446 185.084 16.4881 185.084 20.0482V20.0946C185.084 23.6536 182.218 26.5435 178.357 26.5435ZM181.617 20.0946C181.617 18.2677 180.299 16.6731 178.357 16.6731C176.346 16.6731 175.145 18.2222 175.145 20.0482V20.0946C175.145 21.9205 176.462 23.5152 178.404 23.5152C180.415 23.5152 181.617 21.966 181.617 20.1401V20.0946Z" fill="#4F4F4F"/>
<path d="M195.002 26.2657V19.355C195.002 17.6907 194.216 16.8349 192.876 16.8349C191.535 16.8349 190.68 17.6907 190.68 19.355V26.2657H187.166V13.8761H190.68V15.6333C191.489 14.5925 192.529 13.6446 194.309 13.6446C196.967 13.6446 198.516 15.4018 198.516 18.2454V26.2657H195.002Z" fill="#4F4F4F"/>
</svg>
