<?xml version="1.0" encoding="UTF-8"?><svg id="Layer_2" xmlns="http://www.w3.org/2000/svg" viewBox="0 0 246.0787 52.0285"><g id="Components"><g id="b49d86ee-fbb8-487c-9e56-77417dc7d586_1"><g><path d="m79.197,27.9169c-5.2298,0-9.0626-4.0279-9.0626-8.9973v-.0653c0-4.9694,3.8002-9.0626,9.1272-9.0626,3.2808,0,5.327,1.1047,6.9518,2.9239l-3.0211,3.2482c-1.1047-1.1693-2.2087-1.9164-3.9626-1.9164-2.4691,0-4.223,2.1761-4.223,4.7424v.0646c0,2.6635,1.7213,4.8076,4.4174,4.8076,1.6567,0,2.7934-.7145,3.9953-1.8518l2.8912,2.9239c-1.6893,1.8511-3.6384,3.1829-7.1136,3.1829Z" style="fill:#4f4f4f;"/><path d="m99.1094,14.9569c-3.2808,0-5.2944,1.981-5.2944,6.1387v6.4317h-4.9375V10.1166h4.9375v3.5085c1.0068-2.4038,2.6309-3.9633,5.5541-3.8335v5.1652h-.2597Z" style="fill:#4f4f4f;"/><path d="m101.9041,8.2002V3.8151h5.1972v4.3851h-5.1972Zm.1305,19.3271V10.1166h4.9368v17.4107h-4.9368Z" style="fill:#4f4f4f;"/><path d="m117.0735,27.8523c-2.4365,0-5.1645-.8124-7.4712-2.6309l2.1115-3.2488c1.8838,1.3644,3.8654,2.0789,5.4895,2.0789,1.4296,0,2.0789-.5194,2.0789-1.2991v-.0646c0-1.0721-1.6893-1.4296-3.6057-2.0143-2.4358-.7145-5.1972-1.8511-5.1972-5.2298v-.0646c0-3.5405,2.8586-5.5221,6.3671-5.5221,2.2087,0,4.6119.7471,6.4963,2.0136l-1.8844,3.4106c-1.7213-1.0068-3.4426-1.6241-4.7098-1.6241-1.2019,0-1.8192.5201-1.8192,1.2019v.0653c0,.9742,1.6567,1.429,3.5412,2.0789,2.4358.8117,5.2618,1.9817,5.2618,5.1645v.0653c0,3.8654-2.8906,5.6193-6.6588,5.6193Z" style="fill:#4f4f4f;"/><path d="m126.7214,8.2002V3.8151h5.1972v4.3851h-5.1972Zm.1305,19.3271V10.1166h4.9368v17.4107h-4.9368Z" style="fill:#4f4f4f;"/><path d="m141.8911,27.8523c-2.4361,0-5.1642-.8124-7.4708-2.6309l2.1115-3.2488c1.8838,1.3644,3.8651,2.0789,5.4892,2.0789,1.429,0,2.0789-.5194,2.0789-1.2991v-.0646c0-1.0721-1.6887-1.4296-3.6057-2.0143-2.4354-.7145-5.1968-1.8511-5.1968-5.2298v-.0646c0-3.5405,2.8586-5.5221,6.3668-5.5221,2.2087,0,4.6119.7471,6.4963,2.0136l-1.8844,3.4106c-1.7213-1.0068-3.4426-1.6241-4.7098-1.6241-1.2019,0-1.8188.5201-1.8188,1.2019v.0653c0,.9742,1.6564,1.429,3.5408,2.0789,2.4358.8117,5.2618,1.9817,5.2618,5.1645v.0653c0,3.8654-2.8906,5.6193-6.6588,5.6193Z" style="fill:#4f4f4f;"/></g><g><path d="m64.3634,52.0285c-5.2298,0-9.0626-4.0279-9.0626-8.9973v-.0653c0-4.9694,3.8002-9.0626,9.1272-9.0626,3.2808,0,5.327,1.1047,6.9518,2.9239l-3.0211,3.2482c-1.1047-1.1693-2.2087-1.9164-3.9626-1.9164-2.4691,0-4.223,2.1761-4.223,4.7424v.0646c0,2.6635,1.7213,4.8076,4.4174,4.8076,1.6567,0,2.7934-.7145,3.9953-1.8518l2.8912,2.9239c-1.6893,1.8511-3.6384,3.1829-7.1136,3.1829Z" style="fill:#4f4f4f;"/><path d="m82.1004,52.0285c-5.3923,0-9.3876-3.9953-9.3876-8.9973v-.0653c0-5.0021,4.0279-9.0626,9.4521-9.0626,5.3923,0,9.3876,3.9959,9.3876,8.998v.0646c0,5.0028-4.0279,9.0626-9.4521,9.0626Zm4.5799-9.0626c0-2.5656-1.8518-4.807-4.5799-4.807-2.826,0-4.5153,2.1761-4.5153,4.7424v.0646c0,2.5663,1.8518,4.8076,4.5799,4.8076,2.826,0,4.5153-2.1761,4.5153-4.7424v-.0653Z" style="fill:#4f4f4f;"/><path d="m105.4881,51.639v-9.7125c0-2.3386-1.1047-3.5405-2.9885-3.5405s-3.0857,1.2019-3.0857,3.5405v9.7125h-4.9375v-17.4107h4.9375v2.4691c1.1366-1.4623,2.5982-2.794,5.1-2.794,3.7349,0,5.9117,2.4691,5.9117,6.4644v11.2713h-4.9375Z" style="fill:#4f4f4f;"/><path d="m125.0763,51.639v-9.7125c0-2.3386-1.1047-3.5405-2.9885-3.5405s-3.0857,1.2019-3.0857,3.5405v9.7125h-4.9375v-17.4107h4.9375v2.4691c1.1366-1.4623,2.5982-2.794,5.1-2.794,3.7349,0,5.9117,2.4691,5.9117,6.4644v11.2713h-4.9375Z" style="fill:#4f4f4f;"/><path d="m149.8279,44.6552h-12.1153c.4867,2.2413,2.0462,3.4106,4.2546,3.4106,1.6567,0,2.8586-.5194,4.223-1.7866l2.826,2.501c-1.6241,2.0143-3.9633,3.2482-7.1136,3.2482-5.2295,0-9.0949-3.6703-9.0949-8.9973v-.0653c0-4.9694,3.5405-9.0626,8.6075-9.0626,5.8144,0,8.478,4.5153,8.478,9.4528v.0646c0,.4874-.0326.7797-.0653,1.2345Zm-8.4127-6.7886c-2.0459,0-3.3777,1.4616-3.7679,3.7029h7.4382c-.2923-2.2087-1.5914-3.7029-3.6703-3.7029Z" style="fill:#4f4f4f;"/><path d="m161.1333,52.0285c-5.2298,0-9.0626-4.0279-9.0626-8.9973v-.0653c0-4.9694,3.8002-9.0626,9.1272-9.0626,3.2808,0,5.327,1.1047,6.9518,2.9239l-3.0211,3.2482c-1.1047-1.1693-2.2087-1.9164-3.9626-1.9164-2.4691,0-4.223,2.1761-4.223,4.7424v.0646c0,2.6635,1.7213,4.8076,4.4174,4.8076,1.6567,0,2.7934-.7145,3.9953-1.8518l2.8912,2.9239c-1.6893,1.8511-3.6384,3.1829-7.1136,3.1829Z" style="fill:#4f4f4f;"/><path d="m176.6942,51.9313c-3.0211,0-5.0673-1.2019-5.0673-5.2298v-8.2502h-2.0789v-4.223h2.0789v-4.4501h4.9368v4.4501h4.0932v4.223h-4.0932v7.4385c0,1.1366.4874,1.6887,1.5921,1.6887.9096,0,1.7213-.2271,2.4358-.6166v3.9626c-1.0394.6173-2.2413,1.0068-3.8974,1.0068Z" style="fill:#4f4f4f;"/><path d="m183.7425,32.3119v-4.3848h5.1972v4.3848h-5.1972Zm.1305,19.3271v-17.4107h4.9368v17.4107h-4.9368Z" style="fill:#4f4f4f;"/><path d="m201.349,52.0285c-5.3923,0-9.3876-3.9953-9.3876-8.9973v-.0653c0-5.0021,4.0279-9.0626,9.4521-9.0626,5.3923,0,9.3876,3.9959,9.3876,8.998v.0646c0,5.0028-4.0279,9.0626-9.4521,9.0626Zm4.5799-9.0626c0-2.5656-1.8518-4.807-4.5799-4.807-2.826,0-4.5153,2.1761-4.5153,4.7424v.0646c0,2.5663,1.8518,4.8076,4.5799,4.8076,2.826,0,4.5153-2.1761,4.5153-4.7424v-.0653Z" style="fill:#4f4f4f;"/><path d="m224.7367,51.639v-9.7125c0-2.3386-1.1047-3.5405-2.9885-3.5405s-3.0857,1.2019-3.0857,3.5405v9.7125h-4.9375v-17.4107h4.9375v2.4691c1.1366-1.4623,2.5982-2.794,5.1-2.794,3.7349,0,5.9117,2.4691,5.9117,6.4644v11.2713h-4.9375Z" style="fill:#4f4f4f;"/><path d="m239.42,51.9639c-2.4365,0-5.1645-.8124-7.4712-2.6309l2.1115-3.2488c1.8838,1.3644,3.8654,2.0789,5.4895,2.0789,1.429,0,2.0789-.5194,2.0789-1.2991v-.0646c0-1.0721-1.6887-1.4296-3.6057-2.0143-2.4358-.7145-5.1972-1.8511-5.1972-5.2298v-.0646c0-3.5405,2.8586-5.5221,6.3671-5.5221,2.2087,0,4.6119.7471,6.4963,2.0136l-1.8844,3.4106c-1.7213-1.0068-3.4426-1.6241-4.7098-1.6241-1.2019,0-1.8192.5201-1.8192,1.2019v.0653c0,.9742,1.6567,1.429,3.5412,2.0789,2.4358.8117,5.2618,1.9817,5.2618,5.1645v.0653c0,3.8654-2.8906,5.6193-6.6588,5.6193Z" style="fill:#4f4f4f;"/></g><path d="m12.7181,26.9027c-.1544.1544-.2888.3089-.4231.47-1.786,2.2402-1.6218,5.4604.3828,7.5073l14.1013,14.1013c2.2128,2.2106,5.7981,2.2106,8.0109,0l25.1943-25.1943c2.2114-2.2151,2.2114-5.8025,0-8.0176L45.9233,1.7084c-2.2427-2.1437-5.7749-2.1437-8.0176,0l-7.0372,7.0372-4.0894-4.123c-6.099-6.1367-16.018-6.1674-22.1548-.0683C1.8211,7.3402.176,11.0826.0157,15.0308h-.0023C.0067,15.2725,0,15.4874,0,15.7023c-.0064,4.163,1.6579,8.1544,4.6198,11.0796l3.0274,3.0426c.1944-1.6431.8312-3.2483,1.9262-4.6217l.0476-.0581c.0668-.0801.1352-.1577.2034-.2358l-1.6859-1.6859c-2.001-1.9904-3.123-4.6983-3.1157-7.5207,0-.2066.0015-.4143.0313-.6446h.009c.3433-5.8569,5.3695-10.3265,11.2264-9.9832,2.6048.1527,5.0623,1.2587,6.9039,3.1071l3.5858,3.5656.5573.5574,3.5589,3.5656.5238.5238,6.1038,6.1374c-1.1086.8173-2.4216,1.3123-3.7939,1.4303h-.0672c-1.1594-.0257-2.2562-.5315-3.0284-1.3967l-2.6859-2.6859-.5238-.5238-3.5656-3.5522-.1007.094-3.4581,3.4649-7.5812,7.5409Zm43.7073-6.6343l-25.1943,25.1541c-.1779.2466-.5221.3023-.7687.1244-.0478-.0345-.0899-.0765-.1244-.1244l-.329-.3357-13.7387-13.732c-.2424-.2458-.2424-.6406,0-.8864l7.5744-7.5744.0202.0201,3.2433,3.2299c1.7545,1.831,4.179,2.8686,6.7149,2.874,4.9489-.094,8.8368-4.1297,9.2666-4.5863l1.6451-1.7795-10.3073-10.3476,7.0372-7.0305c.2556-.2307.6442-.2307.8998,0l14.061,14.1013c.1196.116.1853.2766.1813.4432.0042.1686-.0614.3314-.1813.4499Z" style="fill:#0e7c9b;"/></g></g></svg>