<svg width="20" height="25" viewBox="0 0 20 25" fill="none" xmlns="http://www.w3.org/2000/svg">
<path d="M5.90962 9.56677C5.66228 9.1204 5.53451 8.60142 5.57173 8.05547C5.62146 7.32409 5.95317 6.65595 6.50555 6.17397C7.00967 5.73404 7.64268 5.49745 8.30534 5.49745C8.36878 5.49745 8.43225 5.49966 8.49606 5.50404C9.22745 5.55377 9.89558 5.88548 10.3776 6.43801C10.685 6.79039 10.8919 7.20609 10.9893 7.65063C11.6898 7.66126 12.3667 7.76731 13.0071 7.95942C12.8681 5.63113 11.0173 3.70514 8.6299 3.54244C7.37575 3.46016 6.16107 3.86534 5.21302 4.69256C4.26497 5.51977 3.69573 6.66659 3.61017 7.92164C3.53059 9.08917 3.88319 10.2174 4.59743 11.1325C4.96156 10.5509 5.40333 10.0252 5.90962 9.56677Z" fill="#2EBEE5"/>
<path d="M14.2166 25H5.46715C2.45254 25 0 22.5473 0 19.5328C0 16.9013 2.14079 14.7605 4.77217 14.7605H4.79831C4.88223 11.4444 7.60596 8.77295 10.9418 8.77295C14.3306 8.77295 17.0873 11.5299 17.0873 14.9185C17.0873 15.0377 17.0837 15.1576 17.0764 15.278C18.6644 16.0788 19.6838 17.6992 19.6838 19.5325C19.6838 22.5473 17.2313 25 14.2166 25ZM4.77217 16.7265C3.22492 16.7265 1.96598 17.9852 1.96598 19.5325C1.96598 21.4633 3.53663 23.034 5.46715 23.034H14.2166C16.1471 23.034 17.7178 21.4633 17.7178 19.5328C17.7178 18.3059 16.8977 17.2015 15.7234 16.8468L14.8736 16.5904L15.0424 15.719C15.0948 15.4483 15.1213 15.1792 15.1213 14.9185C15.1213 12.6138 13.2464 10.7389 10.9418 10.7389C8.63718 10.7389 6.76227 12.6138 6.76227 14.9185C6.76227 15.1196 6.78182 15.3383 6.82189 15.5873L7.00526 16.7265H4.77217Z" fill="#2EBEE5"/>
<path d="M10.1031 2.71849C10.0136 2.71849 9.92278 2.70606 9.83261 2.68044C9.31059 2.53125 9.00813 1.98707 9.15736 1.46524L9.37219 0.713C9.5212 0.190798 10.0659 -0.110166 10.5872 0.0375634C11.1092 0.186753 11.4117 0.730937 11.2625 1.25277L11.0476 2.00501C10.9244 2.43689 10.5307 2.71849 10.1031 2.71849Z" fill="#2EBEE5"/>
<path d="M13.9762 5.9889C13.6306 5.9889 13.2955 5.80642 13.1159 5.48314C12.8524 5.00846 13.0236 4.4102 13.4981 4.14653L14.3273 3.68612C14.802 3.4217 15.4004 3.59396 15.6639 4.06827C15.9274 4.54295 15.7563 5.14121 15.2818 5.40487L14.4525 5.86529C14.3013 5.9494 14.1377 5.9889 13.9762 5.9889Z" fill="#2EBEE5"/>
<path d="M1.71731 12.7981C1.37189 12.7981 1.03674 12.616 0.85718 12.2924C0.593513 11.8181 0.76446 11.2194 1.23895 10.9558L2.03344 10.5144C2.50793 10.2511 3.10638 10.4215 3.37004 10.8965C3.63371 11.3708 3.46276 11.9695 2.98827 12.2331L2.19379 12.6745C2.04257 12.7583 1.87878 12.7981 1.71731 12.7981Z" fill="#2EBEE5"/>
<path d="M2.0298 7.38293C1.94019 7.38293 1.84934 7.3705 1.75902 7.34455L0.792468 7.06807C0.270452 6.91888 -0.0316348 6.3747 0.117593 5.85287C0.266783 5.33101 0.811491 5.02787 1.33298 5.17815L2.29953 5.45462C2.82155 5.60381 3.12364 6.14799 2.97441 6.66982C2.85098 7.10133 2.4573 7.38293 2.0298 7.38293Z" fill="#2EBEE5"/>
<path d="M5.0073 3.30504C4.66189 3.30504 4.32673 3.12293 4.14699 2.79927L3.76611 2.11358C3.50263 1.6389 3.67358 1.04064 4.14807 0.776971C4.62257 0.514054 5.22101 0.684102 5.48487 1.15912L5.86574 1.84482C6.12922 2.3195 5.95827 2.91776 5.48378 3.18142C5.33257 3.26516 5.16877 3.30504 5.0073 3.30504Z" fill="#2EBEE5"/>
</svg>
