<svg width="42" height="25" viewBox="0 0 42 25" fill="none" xmlns="http://www.w3.org/2000/svg">
<path d="M33.008 19.9981C31.0691 21.578 28.5962 22.5277 25.8999 22.5277H11.2638C7.94189 22.5277 4.95661 21.089 2.89495 18.8015L2.89441 18.8022L4.83141 21.2293C6.89407 23.5382 9.88519 25 13.225 25H27.8611C30.5572 25 33.0301 24.0504 34.969 22.4704L33.008 19.9981Z" fill="#539ED0"/>
<path d="M39.4211 22.5037C36.4358 22.5037 34.2846 21.135 33.0082 19.998L34.9691 22.4704C35.8107 23.2199 37.0403 24.0621 38.6305 24.5546C39.4524 24.8091 40.365 24.976 41.3823 24.976L39.4211 22.5037Z" fill="#FF443B"/>
<path d="M39.5816 19.5889C39.315 18.0316 39.1248 16.1068 39.1248 13.7362C39.1248 11.2853 38.3335 9.024 37.0042 7.17506L34.6964 4.22858C34.6964 4.22858 34.6935 4.22739 34.6921 4.22681C36.2374 6.15499 37.1638 8.60061 37.1638 11.2639C37.1638 19.4928 39.4211 22.5037 39.4211 22.5037L41.3823 24.976C41.3823 24.976 40.2409 23.4373 39.5816 19.5889Z" fill="#FFB351"/>
<path d="M39.4211 22.5037C39.4211 22.5037 37.1638 19.4928 37.1638 11.2639C37.1638 5.04304 32.1209 0 25.8999 0H11.2639C5.04308 0 0 5.04304 0 11.2639C0 17.4847 5.04308 22.5277 11.2639 22.5277H25.9C28.5962 22.5277 31.0692 21.578 33.0081 19.9981C34.2846 21.135 36.4358 22.5037 39.4211 22.5037Z" fill="#005191"/>
<path d="M15.6216 17.0261H7.66646V15.3036L11.3308 11.4508C12.2336 10.4231 12.6854 9.60601 12.6854 9.00025C12.6854 8.50976 12.5781 8.13643 12.3643 7.88096C12.1501 7.62483 11.8398 7.49677 11.4326 7.49677C11.0305 7.49677 10.7042 7.66774 10.4539 8.00968C10.2032 8.35162 10.078 8.77872 10.078 9.29032H7.43152C7.43152 8.59043 7.60632 7.94435 7.95595 7.35204C8.30589 6.75973 8.79124 6.29676 9.41239 5.96251C10.0335 5.62826 10.7279 5.46112 11.495 5.46112C12.7271 5.46112 13.6757 5.74608 14.3413 6.31466C15.0069 6.88389 15.3395 7.70032 15.3395 8.76519C15.3395 9.21471 15.256 9.65139 15.0892 10.0766C14.922 10.5024 14.6624 10.9487 14.3099 11.4155C13.9577 11.883 13.3901 12.5079 12.6069 13.2911L11.1349 14.9899H15.6216L15.6216 17.0261Z" fill="white"/>
<path d="M22.228 17.0261H19.5815V8.60129L16.9821 9.3607V7.35583L21.9853 5.62567H22.228V17.0261Z" fill="white"/>
<path d="M29.6213 17.0261H26.9748V8.60129L24.3754 9.3607V7.35583L29.3786 5.62567H29.6213V17.0261Z" fill="white"/>
</svg>
