<svg width="25" height="25" viewBox="0 0 25 25" fill="none" xmlns="http://www.w3.org/2000/svg">
<g clip-path="url(#clip0_38_819)">
<path d="M25 0H0V25H25V0Z" fill="#161F4C"/>
<path d="M5.71997 20.932V18.4806H6.22341V20.5272H7.11645V20.932H5.71997Z" fill="white"/>
<path d="M7.58704 20.932V18.4805H8.09048V20.932H7.58704Z" fill="white"/>
<path d="M8.68494 18.4805H10.0814V18.8853H9.18838V19.4621H10.0283V19.8669H9.18838V20.932H8.68494V18.4805Z" fill="white"/>
<path d="M11.9232 18.4806V18.8853H11.0302V19.4621H11.8701V19.8669H11.0302V20.5247H11.9586V20.9295H10.5267V18.478H11.9232V18.4806Z" fill="white"/>
<path d="M12.4316 20.932V18.4805H12.9351V20.5272H13.8281V20.932H12.4316Z" fill="white"/>
<path d="M14.2987 20.932V18.4805H14.8021V20.932H14.2987Z" fill="white"/>
<path d="M15.3814 18.4805H15.976L17.1119 20.1249H17.1194V18.4805H17.6811V20.932H17.0815L15.9481 19.2926H15.9405V20.932H15.3789V18.4805H15.3814Z" fill="white"/>
<path d="M19.6089 18.4806V18.8853H18.7158V19.4621H19.5558V19.8669H18.7158V20.5247H19.6443V20.9295H18.2124V18.478H19.6089V18.4806Z" fill="white"/>
<path d="M1.10303 1.10303V23.897H23.897V1.10303H1.10303ZM23.348 23.348H1.65201V20.9295H2.94982V12.1787H1.65201V1.65201H23.348V23.348Z" fill="white"/>
<path d="M11.1288 10.2738C11.6221 10.6608 12.1837 10.7215 12.7378 10.7215C13.2918 10.7215 13.9521 10.6684 14.4631 10.1574C14.7541 9.86644 14.9742 9.42625 14.9742 8.86462C14.9742 8.46997 14.8502 8.1512 14.5871 7.89569C14.4201 7.73631 14.2076 7.61488 13.9622 7.54404C14.2076 7.46561 14.4808 7.31635 14.6655 7.11397C14.9387 6.81544 14.9919 6.4815 14.9919 6.17286C14.9919 5.73267 14.8957 5.38102 14.5694 5.07237C14.1646 4.67519 13.6359 4.58917 13.1097 4.58917C12.6265 4.58917 12.0193 4.66001 11.5614 5.13562C11.2629 5.44426 11.1136 5.87434 11.1136 6.28923C11.1136 6.58017 11.1844 6.82556 11.3337 7.04566C11.4475 7.21263 11.6069 7.37201 11.8169 7.48585C11.5007 7.55669 11.1743 7.72366 10.9719 7.91593C10.7164 8.16132 10.5317 8.57622 10.5317 9.04171C10.5317 9.39336 10.6456 9.88668 11.1288 10.2738ZM12.5455 5.79591C12.6771 5.66436 12.8541 5.59352 13.0742 5.59352C13.2766 5.59352 13.4613 5.65424 13.5752 5.76049C13.7067 5.87434 13.7775 6.05902 13.7775 6.22599C13.7775 6.42838 13.6991 6.63835 13.5676 6.77243C13.4613 6.87869 13.2766 6.98241 13.0135 6.98241C12.7504 6.98241 12.5834 6.86857 12.4848 6.76232C12.4064 6.67377 12.3254 6.54222 12.3254 6.34995C12.3254 6.12985 12.4139 5.92746 12.5455 5.79591ZM12.1154 8.3207C12.2394 8.18915 12.4494 8.0576 12.7833 8.0576C13.0995 8.0576 13.2766 8.18915 13.3373 8.23469C13.4613 8.33082 13.6004 8.52562 13.6004 8.83173C13.6004 9.12267 13.4765 9.31494 13.3626 9.42119C13.1957 9.58057 12.9402 9.64888 12.7201 9.64888C12.5 9.64888 12.2799 9.58816 12.1306 9.44649C12.0066 9.33265 11.9029 9.14797 11.9029 8.90004C11.9029 8.5914 12.0345 8.39913 12.1129 8.3207H12.1154Z" fill="white"/>
<path d="M16.1682 10.2738C16.6615 10.6608 17.2232 10.7215 17.7772 10.7215C18.3312 10.7215 18.9915 10.6684 19.5026 10.1574C19.7935 9.86644 20.0136 9.42625 20.0136 8.86462C20.0136 8.46997 19.8896 8.1512 19.6265 7.89569C19.4596 7.73631 19.247 7.61488 19.0016 7.54404C19.247 7.46561 19.5203 7.31635 19.7049 7.11397C19.9782 6.81544 20.0313 6.4815 20.0313 6.17286C20.0313 5.73267 19.9352 5.38102 19.6088 5.07237C19.204 4.67519 18.6753 4.58917 18.1491 4.58917C17.6659 4.58917 17.0587 4.66001 16.6008 5.13562C16.3023 5.44426 16.153 5.87434 16.153 6.28923C16.153 6.58017 16.2239 6.82556 16.3731 7.04566C16.487 7.21263 16.6464 7.37201 16.8563 7.48585C16.5401 7.55669 16.2137 7.72366 16.0114 7.91593C15.7558 8.16132 15.5712 8.57622 15.5712 9.04171C15.5712 9.39336 15.685 9.88668 16.1682 10.2738ZM17.5824 5.79591C17.714 5.66436 17.891 5.59352 18.1111 5.59352C18.3135 5.59352 18.4982 5.65424 18.612 5.76049C18.7436 5.87434 18.8144 6.05902 18.8144 6.22599C18.8144 6.42838 18.736 6.63835 18.6045 6.77243C18.4982 6.87869 18.3135 6.98241 18.0504 6.98241C17.7873 6.98241 17.6203 6.86857 17.5217 6.76232C17.4433 6.67377 17.3623 6.54222 17.3623 6.34995C17.3623 6.12985 17.4508 5.92746 17.5824 5.79591ZM17.1523 8.3207C17.2763 8.18915 17.4863 8.0576 17.8202 8.0576C18.1364 8.0576 18.3135 8.18915 18.3742 8.23469C18.4982 8.33082 18.6373 8.52562 18.6373 8.83173C18.6373 9.12267 18.5134 9.31494 18.3995 9.42119C18.2326 9.58057 17.9771 9.64888 17.757 9.64888C17.5369 9.64888 17.3168 9.58816 17.1675 9.44649C17.0435 9.33265 16.9398 9.14797 16.9398 8.90004C16.9398 8.5914 17.0714 8.39913 17.1498 8.3207H17.1523Z" fill="white"/>
<path d="M7.72109 8.62935L6.1374 10.4053L5.8667 10.7064L7.44786 10.7139L7.72362 10.4053L9.1378 8.82162C9.58559 8.3207 9.83351 8.02218 9.98277 7.75655C10.1928 7.39478 10.3344 6.94699 10.3344 6.48909C10.3344 5.78579 10.0258 5.36331 9.78039 5.13562C9.28706 4.67772 8.60147 4.58917 8.07273 4.58917C7.45798 4.58917 6.78757 4.70302 6.27907 5.18622C5.95272 5.49486 5.64661 5.99577 5.64661 6.7775C5.64661 7.25311 5.75286 7.72872 6.15764 8.11579C6.55229 8.50285 7.13416 8.67994 7.72362 8.62682L7.72109 8.62935ZM7.2986 5.98059C7.44786 5.82121 7.70338 5.69978 8.03732 5.69978C8.38897 5.69978 8.60147 5.82374 8.72291 5.93758C8.9 6.10455 8.99613 6.34995 8.99613 6.59788C8.99613 6.8458 8.88229 7.15191 8.69761 7.33659C8.53064 7.50356 8.25741 7.5997 7.98419 7.5997C7.72867 7.5997 7.44786 7.50356 7.28089 7.33659C7.12151 7.17721 7.0355 6.92423 7.0355 6.71172C7.0355 6.47391 7.12404 6.16527 7.2986 5.98059Z" fill="white"/>
<path d="M6.70159 12.8112C6.70159 12.5784 6.61811 12.4165 6.35753 12.4165C6.12732 12.4165 5.9907 12.5405 5.9907 12.7757C5.9907 13.4006 7.03553 13.0262 7.03553 13.8383C7.03553 14.3493 6.66111 14.496 6.34741 14.496C5.82879 14.496 5.677 14.2279 5.677 13.7573H5.95023C5.95023 14.0052 5.9654 14.2734 6.36512 14.2734C6.58269 14.2734 6.74966 14.1191 6.74966 13.8813C6.74966 13.2539 5.70483 13.6182 5.70483 12.8036C5.70483 12.5987 5.79085 12.1913 6.35247 12.1913C6.77496 12.1913 6.96723 12.4013 6.97229 12.8086H6.69906L6.70159 12.8112Z" fill="white"/>
<path d="M8.11072 12.2369H8.38394V13.7953C8.38394 14.1216 8.49019 14.2734 8.75836 14.2734C9.04929 14.2734 9.13784 14.1064 9.13784 13.7953V12.2369H9.41106V13.7953C9.41106 14.2203 9.19349 14.496 8.75836 14.496C8.32322 14.496 8.11072 14.2506 8.11072 13.7953V12.2369Z" fill="white"/>
<path d="M10.5673 12.2369H10.8405V14.453H10.5673V12.2369Z" fill="white"/>
<path d="M13.3778 13.6941C13.3525 14.114 13.1881 14.4986 12.7049 14.4986C12.0749 14.4986 11.9915 13.9066 11.9915 13.3475C11.9915 12.7884 12.0926 12.1964 12.7049 12.1964C13.1577 12.1964 13.3475 12.4519 13.3601 12.8845H13.0742C13.0692 12.6341 12.9882 12.419 12.7049 12.419C12.3254 12.419 12.2773 12.8339 12.2773 13.3475C12.2773 13.8611 12.3279 14.276 12.7049 14.276C13.0363 14.276 13.0844 13.9648 13.0919 13.6966H13.3778V13.6941Z" fill="white"/>
<path d="M14.4556 12.2369H14.7288V14.453H14.4556V12.2369Z" fill="white"/>
<path d="M15.9381 12.2369H16.5301C17.2182 12.2369 17.3068 12.7327 17.3068 13.345C17.3068 13.9041 17.1676 14.453 16.5579 14.453H15.9381V12.2369ZM16.2113 14.2304H16.4972C16.9678 14.2304 17.0209 13.7472 17.0209 13.35C17.0209 12.9225 16.9931 12.462 16.4972 12.462H16.2113V14.2304Z" fill="white"/>
<path d="M18.4553 12.2369H19.6013V12.4797H18.7285V13.1755H19.5507V13.4183H18.7285V14.2127H19.6368V14.4556H18.4553V12.2394V12.2369Z" fill="white"/>
<path d="M10.046 16.7983C10.0207 17.2182 9.85629 17.6028 9.37309 17.6028C8.74315 17.6028 8.65967 17.0108 8.65967 16.4517C8.65967 15.8926 8.76086 15.3006 9.37309 15.3006C9.82593 15.3006 10.0157 15.5561 10.0283 15.9887H9.74244C9.73738 15.7383 9.65643 15.5232 9.37309 15.5232C8.99361 15.5232 8.94554 15.9381 8.94554 16.4517C8.94554 16.9652 8.99614 17.3801 9.37309 17.3801C9.7045 17.3801 9.75256 17.069 9.76015 16.8008H10.046V16.7983Z" fill="white"/>
<path d="M11.0175 15.3436H11.7334C12.08 15.3436 12.3026 15.5485 12.3026 15.9001C12.3026 16.143 12.2191 16.396 11.9611 16.4592V16.4643C12.1534 16.4871 12.2621 16.6439 12.2748 16.8336L12.2925 17.2131C12.3052 17.4585 12.3456 17.5192 12.4114 17.5597H12.0825C12.037 17.5142 12.0142 17.3497 12.0092 17.241L11.9914 16.8969C11.9687 16.5933 11.8017 16.5731 11.6626 16.5731H11.2932V17.5597H11.02V15.3436H11.0175ZM11.2907 16.3479H11.5614C11.7233 16.3479 12.0167 16.3479 12.0167 15.9204C12.0167 15.7028 11.87 15.5662 11.617 15.5662H11.2907V16.3479Z" fill="white"/>
<path d="M13.3475 15.3436H13.6208V17.5597H13.3475V15.3436Z" fill="white"/>
<path d="M15.642 15.9178C15.642 15.6851 15.5585 15.5232 15.298 15.5232C15.0677 15.5232 14.9311 15.6472 14.9311 15.8824C14.9311 16.5073 15.976 16.1329 15.976 16.945C15.976 17.456 15.6015 17.6027 15.2878 17.6027C14.7692 17.6027 14.6174 17.3346 14.6174 16.864H14.8907C14.8907 17.1119 14.9058 17.3801 15.3056 17.3801C15.5231 17.3801 15.6901 17.2258 15.6901 16.988C15.6901 16.3606 14.6453 16.7249 14.6453 15.9103C14.6453 15.7053 14.7313 15.298 15.2929 15.298C15.7154 15.298 15.9077 15.508 15.9127 15.9153H15.6395L15.642 15.9178Z" fill="white"/>
<path d="M16.9728 15.3436H17.246V17.5597H16.9728V15.3436Z" fill="white"/>
<path d="M19.2648 15.9178C19.2648 15.6851 19.1813 15.5232 18.9208 15.5232C18.6905 15.5232 18.5539 15.6472 18.5539 15.8824C18.5539 16.5073 19.5988 16.1329 19.5988 16.945C19.5988 17.456 19.2243 17.6027 18.9106 17.6027C18.392 17.6027 18.2402 17.3346 18.2402 16.864H18.5135C18.5135 17.1119 18.5286 17.3801 18.9284 17.3801C19.1459 17.3801 19.3129 17.2258 19.3129 16.988C19.3129 16.3606 18.2681 16.7249 18.2681 15.9103C18.2681 15.7053 18.3541 15.298 18.9157 15.298C19.3382 15.298 19.5305 15.508 19.5355 15.9153H19.2623L19.2648 15.9178Z" fill="white"/>
<path d="M6.83567 16.945C6.87867 16.8336 6.9065 16.7097 6.92168 16.5124H7.16455C7.16455 16.6743 7.06841 17.0487 6.98493 17.1575L7.2708 17.5572H6.97481L6.82555 17.3497C6.65605 17.5116 6.51944 17.6002 6.2791 17.6002C5.74024 17.6002 5.62134 17.1878 5.62134 16.9854C5.62134 16.7552 5.74277 16.5503 5.92239 16.4112L6.0843 16.2897L6.016 16.1784C5.93504 16.0544 5.85408 15.9305 5.85408 15.7736C5.85408 15.5131 6.06153 15.3385 6.31452 15.3385C6.5928 15.3385 6.78254 15.4599 6.78254 15.761C6.78254 15.9786 6.63075 16.1177 6.47896 16.2442L6.398 16.3125L6.83567 16.9399V16.945ZM6.21332 16.4592C6.03623 16.5655 5.89709 16.7324 5.89709 16.9652C5.89709 17.2359 6.08683 17.3776 6.3044 17.3776C6.47896 17.3776 6.59533 17.284 6.70158 17.1625L6.21332 16.4592ZM6.34235 16.0975C6.44101 16.0013 6.5422 15.9153 6.5422 15.766C6.5422 15.6396 6.4486 15.5485 6.31958 15.5485C6.19055 15.5485 6.09948 15.6396 6.09948 15.766C6.09948 15.8647 6.16526 15.976 6.23356 16.0797L6.28669 16.1531L6.34488 16.0975H6.34235Z" fill="white"/>
</g>
<defs>
<clipPath id="clip0_38_819">
<rect width="25" height="25" fill="white"/>
</clipPath>
</defs>
</svg>
