<svg width="28" height="25" viewBox="0 0 28 25" fill="none" xmlns="http://www.w3.org/2000/svg">
<path d="M12.3553 25L3.89919 16.5441C0.2563 13.1823 -1.73805 7.76751 2.00967 3.22974C4.3345 0.414056 8.66793 -1.18344 12.4219 1.06143C16.1205 -1.12303 20.2627 0.329432 22.5871 3.05152C25.204 6.11641 25.8672 11.1867 21.4492 15.6046L15.0831 21.9704L5.35339 12.2407C4.46129 11.3487 3.96979 10.1629 3.96979 8.90099C3.96979 7.63903 4.46124 6.45368 5.35339 5.56132C7.19421 3.72049 10.1908 3.7201 12.0325 5.56088L12.4178 5.94624L12.807 5.55705C14.6487 3.71496 17.6453 3.71496 19.4865 5.55662C20.3786 6.44894 20.8701 7.63476 20.8701 8.89668C20.8701 10.1586 20.3787 11.344 19.4865 12.2363L15.3915 16.3369L13.7746 14.7202L17.8697 10.6193C18.8198 9.66949 18.8198 8.12343 17.8699 7.17371C16.9197 6.22355 15.3741 6.22355 14.4239 7.17371L12.4178 9.18038L10.4156 7.17793C9.46561 6.22777 7.91977 6.22817 6.97026 7.17837C6.50986 7.63855 6.25634 8.25017 6.25634 8.90095C6.25634 9.55172 6.50982 10.1633 6.97005 10.6235L15.0831 18.737L19.8325 13.9874C23.4499 10.37 22.6405 6.63521 20.8482 4.53625C19.0631 2.44578 15.8242 1.36883 13.0888 3.35595L12.4106 3.8485L11.7369 3.35003C8.97097 1.3025 5.56924 2.51002 3.77267 4.68555C1.8132 7.05842 1.22858 10.9821 5.46502 14.8772L5.49947 14.9104L13.9722 23.3833L12.3553 25Z" fill="#00B4A4"/>
</svg>
