<svg width="25" height="25" viewBox="0 0 25 25" fill="none" xmlns="http://www.w3.org/2000/svg">
<path d="M13.7507 16.1655L12.7665 17.206C12.6845 17.2927 12.5923 17.374 12.5 17.4391C12.4077 17.374 12.3206 17.2927 12.2386 17.206L7.98397 12.7078C7.63028 12.3392 7.44061 11.846 7.44061 11.3258C7.44061 10.8055 7.6354 10.3123 7.98397 9.94376C8.33767 9.5698 8.80413 9.36928 9.29623 9.36928C9.79345 9.36928 10.2599 9.57522 10.6085 9.93834L11.9419 11.4955L12.5 11.6071L13.058 11.4955L14.3966 9.93292C15.1194 9.16875 16.2984 9.16875 17.0211 9.93292C17.3697 10.3015 17.5594 10.7946 17.5594 11.3149C17.5594 11.8406 17.3646 12.3338 17.0211 12.7023L16.7411 13.058L18.3036 14.4258L18.6563 14.4204C19.4355 13.5857 19.8661 12.4801 19.8661 11.3095C19.8661 10.1334 19.4355 9.03326 18.6512 8.20406C17.8669 7.37486 16.8212 6.91962 15.7089 6.91962C14.5965 6.91962 13.5508 7.37486 12.7665 8.20948L12.5051 8.48588L12.2386 8.19864C11.4492 7.37486 10.4034 6.91962 9.29623 6.91962C8.19414 6.91962 7.15356 7.37486 6.35903 8.20406C5.56962 9.03326 5.13391 10.1389 5.13391 11.3149C5.13391 12.491 5.56962 13.5966 6.3539 14.4258L10.5982 18.9132C11.0237 19.3685 11.5312 19.7153 12.1053 19.9375L12.5 20.0893L12.8947 19.9375C13.4637 19.7207 13.966 19.3793 14.3966 18.924L15.3808 17.8835L13.7507 16.1655Z" fill="#FB7312"/>
<path d="M12.5 25C5.60666 25 0 19.3933 0 12.5C0 5.60666 5.60666 0 12.5 0C19.3933 0 25 5.60666 25 12.5C25 19.3933 19.3933 25 12.5 25ZM12.5 2.46386C6.96452 2.46386 2.46386 6.96452 2.46386 12.5C2.46386 18.0355 6.96452 22.5361 12.5 22.5361C18.0355 22.5361 22.5361 18.0355 22.5361 12.5C22.5361 6.96452 18.0355 2.46386 12.5 2.46386Z" fill="#FB7312"/>
</svg>
