<svg width="219" height="60" viewBox="0 0 219 60" fill="none" xmlns="http://www.w3.org/2000/svg">
<path d="M14.1831 22.9603C13.5895 21.889 13.2829 20.6434 13.3722 19.3331C13.4916 17.5778 14.2877 15.9743 15.6134 14.8175C16.8233 13.7617 18.3425 13.1939 19.9329 13.1939C20.0851 13.1939 20.2375 13.1992 20.3906 13.2097C22.1459 13.329 23.7494 14.1251 24.9062 15.4512C25.6441 16.2969 26.1407 17.2946 26.3745 18.3615C28.0555 18.387 29.68 18.6416 31.217 19.1026C30.8835 13.5147 26.4416 8.89235 20.7118 8.50185C17.7019 8.3044 14.7866 9.27683 12.5113 11.2621C10.236 13.2474 8.86981 15.9998 8.66445 19.0119C8.47347 21.814 9.31971 24.5218 11.0339 26.718C11.9078 25.3221 12.968 24.0606 14.1831 22.9603Z" fill="#2EBEE5"/>
<path d="M61.519 23.1677H58.7684L56.7006 16.5623L54.5925 23.1677H51.862L48.5497 12.3249H51.6418L53.3681 18.8495L55.3956 12.2845H58.026L60.0736 18.8706L61.8403 12.3249H64.8718L61.519 23.1677Z" fill="#4F4F4F"/>
<path d="M72.2222 23.0869V21.9213C71.4797 22.7446 70.4555 23.2869 68.9696 23.2869C66.9422 23.2869 65.2764 22.1232 65.2764 19.9939V19.9552C65.2764 17.6049 67.0624 16.5218 69.612 16.5218C70.6968 16.5218 71.4797 16.7026 72.2425 16.9624V16.7815C72.2425 15.5177 71.4596 14.8156 69.9333 14.8156C68.7696 14.8156 67.9463 15.0349 66.9624 15.3966L66.1997 13.0672C67.3837 12.5459 68.5484 12.2054 70.3757 12.2054C73.7082 12.2054 75.174 13.9308 75.174 16.843V23.0868L72.2222 23.0869ZM72.2828 18.7494C71.7606 18.5089 71.0778 18.3492 70.3353 18.3492C69.0302 18.3492 68.2271 18.8706 68.2271 19.8342V19.8745C68.2271 20.6978 68.9099 21.1788 69.8938 21.1788C71.3191 21.1788 72.2828 20.3959 72.2828 19.2918V18.7494Z" fill="#4F4F4F"/>
<path d="M81.1788 23.287C79.6727 23.287 77.9867 22.785 76.5614 21.6616L77.8664 19.6535C79.0302 20.496 80.2555 20.9384 81.2586 20.9384C82.1424 20.9384 82.5436 20.6172 82.5436 20.1345V20.0958C82.5436 19.4323 81.5 19.2111 80.3151 18.8495C78.8099 18.409 77.1029 17.7068 77.1029 15.618V15.5776C77.1029 13.3887 78.8696 12.1652 81.0384 12.1652C82.4032 12.1652 83.8891 12.6269 85.0537 13.4098L83.8891 15.5179C82.8253 14.8947 81.7607 14.5139 80.9778 14.5139C80.2352 14.5139 79.8535 14.8351 79.8535 15.2564V15.2968C79.8535 15.8988 80.8777 16.1797 82.0423 16.5817C83.5475 17.0837 85.2941 17.8069 85.2941 19.7746V19.8133C85.2941 22.2041 83.5073 23.287 81.1788 23.287Z" fill="#4F4F4F"/>
<path d="M93.8884 23.0869V17.0836C93.8884 15.6372 93.2055 14.8947 92.0418 14.8947C90.8771 14.8947 90.1338 15.6373 90.1338 17.0836V23.0869H87.083V8.42978H90.1338V13.852C90.8367 12.948 91.7399 12.1247 93.2863 12.1247C95.5947 12.1247 96.9401 13.6502 96.9401 16.1199V23.0869H93.8884Z" fill="#4F4F4F"/>
<path d="M99.2509 11.14V8.42978H102.463V11.14H99.2509ZM99.3317 23.0869V12.3249H102.383V23.0869H99.3317Z" fill="#4F4F4F"/>
<path d="M111.659 23.0869V17.0836C111.659 15.6372 110.976 14.8947 109.812 14.8947C108.647 14.8947 107.905 15.6373 107.905 17.0836V23.0869H104.852V12.3249H107.905V13.852C108.607 12.948 109.511 12.1247 111.056 12.1247C113.366 12.1247 114.71 13.6502 114.71 16.1199V23.0869H111.659Z" fill="#4F4F4F"/>
<path d="M121.779 26.3396C120.032 26.3396 118.387 25.9376 117.021 25.2144L118.066 22.9254C119.17 23.5486 120.274 23.9101 121.699 23.9101C123.787 23.9101 124.771 22.9061 124.771 20.9787V20.4557C123.868 21.5404 122.884 22.204 121.258 22.204C118.748 22.204 116.48 20.3767 116.48 17.1837V17.1434C116.48 13.9311 118.788 12.1248 121.258 12.1248C122.924 12.1248 123.907 12.8269 124.731 13.731V12.3249H127.782V20.6575C127.782 24.7123 125.775 26.3396 121.779 26.3396ZM124.771 17.1434C124.771 15.6776 123.627 14.6543 122.141 14.6543C120.656 14.6543 119.53 15.6777 119.53 17.1434V17.1837C119.53 18.6705 120.656 19.6728 122.141 19.6728C123.626 19.6728 124.771 18.6494 124.771 17.1837V17.1434Z" fill="#4F4F4F"/>
<path d="M133.747 23.2677C131.879 23.2677 130.614 22.5252 130.614 20.0343V14.9351H129.33V12.3249H130.614V9.57432H133.666V12.3249H136.196V14.9351H133.666V19.5323C133.666 20.2362 133.968 20.5767 134.65 20.5767C135.213 20.5767 135.715 20.4363 136.156 20.1958V22.6445C135.514 23.0254 134.77 23.2677 133.747 23.2677Z" fill="#4F4F4F"/>
<path d="M143.023 23.3274C139.69 23.3274 137.221 20.8577 137.221 17.7665V17.7261C137.221 14.6349 139.71 12.1248 143.062 12.1248C146.396 12.1248 148.865 14.5946 148.865 17.6857V17.7261C148.865 20.8173 146.376 23.3274 143.023 23.3274ZM145.853 17.7261C145.853 16.1393 144.709 14.7543 143.023 14.7543C141.276 14.7543 140.232 16.1007 140.232 17.6857V17.7261C140.232 19.3129 141.376 20.6979 143.062 20.6979C144.809 20.6979 145.853 19.3516 145.853 17.7665V17.7261Z" fill="#4F4F4F"/>
<path d="M157.48 23.0869V17.0836C157.48 15.6372 156.797 14.8947 155.633 14.8947C154.469 14.8947 153.726 15.6373 153.726 17.0836V23.0869H150.674V12.3249H153.726V13.852C154.428 12.948 155.332 12.1247 156.878 12.1247C159.187 12.1247 160.532 13.6502 160.532 16.1199V23.0869H157.48Z" fill="#4F4F4F"/>
<path d="M77.8928 53.6378H73.1192L69.5296 42.1728L65.8714 53.6378H61.132L55.3824 34.8205H60.7485L63.7457 46.146L67.2652 34.7512H71.83L75.3836 46.1802L78.4502 34.8206H83.7128L77.8928 53.6378Z" fill="#4F4F4F"/>
<path d="M96.4609 53.4982V51.4769C95.1715 52.9057 93.3943 53.8466 90.8157 53.8466C87.2963 53.8466 84.4034 51.8254 84.4034 48.1321V48.0619C84.4034 43.9852 87.5052 42.1034 91.9303 42.1034C93.8121 42.1034 95.1715 42.4167 96.4951 42.8705V42.5563C96.4951 40.3612 95.1365 39.1413 92.4877 39.1413C90.4673 39.1413 89.0384 39.5248 87.3304 40.1523L86.0069 36.1098C88.0624 35.2041 90.0836 34.6116 93.2547 34.6116C99.0394 34.6116 101.583 37.608 101.583 42.6608V53.4983L96.4609 53.4982ZM96.5653 45.9713C95.6587 45.5535 94.4747 45.2744 93.1845 45.2744C90.9202 45.2744 89.5264 46.1801 89.5264 47.853V47.9232C89.5264 49.3512 90.7113 50.1875 92.4184 50.1875C94.8925 50.1875 96.5654 48.8289 96.5654 46.9121L96.5653 45.9713Z" fill="#4F4F4F"/>
<path d="M116.423 40.0127C112.904 40.0127 110.744 42.1384 110.744 46.5988V53.4982H105.447V34.8205H110.744V38.5839C111.824 36.0054 113.567 34.3325 116.703 34.472V40.0127H116.423Z" fill="#4F4F4F"/>
<path d="M142.521 53.4982V43.0793C142.521 40.5701 141.406 39.2807 139.42 39.2807C137.434 39.2807 136.214 40.5701 136.214 43.0793V53.4982H130.917V43.0793C130.917 40.5701 129.802 39.2807 127.816 39.2807C125.829 39.2807 124.61 40.5701 124.61 43.0793V53.4982H119.314V34.8205H124.61V37.4693C125.829 35.901 127.433 34.4721 130.116 34.4721C132.555 34.4721 134.402 35.5524 135.378 37.4342C137.015 35.5174 138.966 34.4721 141.511 34.4721C145.448 34.4721 147.818 36.8417 147.818 41.3372V53.4983L142.521 53.4982Z" fill="#4F4F4F"/>
<path d="M160.32 53.4982V28.0607H165.617V53.4982H160.32Z" fill="#4F4F4F"/>
<path d="M170.004 32.765V28.0607H175.579V32.765H170.004ZM170.144 53.4982V34.8205H175.441V53.4982H170.144Z" fill="#4F4F4F"/>
<path d="M191.537 53.4982V43.0793C191.537 40.5701 190.352 39.2807 188.331 39.2807C186.31 39.2807 185.021 40.5701 185.021 43.0793V53.4982H179.725V34.8205H185.021V37.4693C186.24 35.901 187.809 34.4721 190.492 34.4721C194.499 34.4721 196.834 37.1209 196.834 41.4065V53.4982H191.537Z" fill="#4F4F4F"/>
<path d="M218.086 46.0064H205.088C205.611 48.4104 207.284 49.6655 209.653 49.6655C211.43 49.6655 212.72 49.1073 214.183 47.7486L217.214 50.4317C215.472 52.5925 212.964 53.9161 209.583 53.9161C203.973 53.9161 199.827 49.9788 199.827 44.2643V44.1941C199.827 38.8632 203.624 34.4722 209.061 34.4722C215.298 34.4722 218.155 39.316 218.155 44.6128V44.6821C218.155 45.2051 218.121 45.5185 218.086 46.0064ZM209.061 38.7235C206.866 38.7235 205.437 40.2919 205.018 42.6959H212.998C212.685 40.3262 211.291 38.7235 209.061 38.7235Z" fill="#4F4F4F"/>
<path d="M34.1199 60H13.1212C5.88608 60 0 54.1134 0 46.8788C0 40.5631 5.13789 35.4252 11.4532 35.4252H11.5159C11.7173 27.4665 18.2543 21.0551 26.2604 21.0551C34.3933 21.0551 41.0096 27.6719 41.0096 35.8043C41.0096 36.0905 41.0008 36.3783 40.9833 36.6671C44.7946 38.5892 47.2411 42.4782 47.2411 46.8779C47.2411 54.1134 41.355 60 34.1199 60ZM11.4532 40.1435C7.73981 40.1435 4.71836 43.1644 4.71836 46.8779C4.71836 51.512 8.48792 55.2816 13.1212 55.2816H34.1198C38.7531 55.2816 42.5226 51.5121 42.5226 46.8788C42.5226 43.9342 40.5545 41.2836 37.7363 40.4323L35.6966 39.817L36.1016 37.7256C36.2276 37.076 36.2912 36.4301 36.2912 35.8043C36.2912 30.2732 31.7914 25.7735 26.2603 25.7735C20.7292 25.7735 16.2294 30.2732 16.2294 35.8043C16.2294 36.287 16.2764 36.8119 16.3725 37.4096L16.8126 40.1435H11.4532Z" fill="#2EBEE5"/>
<path d="M24.2474 6.52437C24.0328 6.52437 23.8147 6.49454 23.5983 6.43306C22.3455 6.07501 21.6196 4.76897 21.9777 3.51658L22.4933 1.7112C22.8509 0.457915 24.1582 -0.264399 25.4094 0.0901522C26.6622 0.448208 27.3881 1.75425 27.03 3.00664L26.5144 4.81201C26.2186 5.84853 25.2738 6.52437 24.2474 6.52437Z" fill="#2EBEE5"/>
<path d="M33.5428 14.3734C32.7134 14.3734 31.909 13.9354 31.478 13.1595C30.8457 12.0203 31.2564 10.5845 32.3952 9.95169L34.3854 8.8467C35.5246 8.2121 36.9609 8.62552 37.5932 9.76386C38.2256 10.9031 37.8148 12.3389 36.6761 12.9717L34.6859 14.0767C34.323 14.2786 33.9303 14.3734 33.5428 14.3734Z" fill="#2EBEE5"/>
<path d="M4.1215 30.7156C3.29251 30.7156 2.48814 30.2785 2.05719 29.5018C1.4244 28.3634 1.83467 26.9267 2.97345 26.2939L4.88021 25.2346C6.019 24.6027 7.45527 25.0117 8.08807 26.1517C8.72086 27.2901 8.31059 28.7268 7.1718 29.3596L5.26505 30.4189C4.90214 30.6199 4.50903 30.7156 4.1215 30.7156Z" fill="#2EBEE5"/>
<path d="M4.87153 17.7191C4.65647 17.7191 4.43843 17.6893 4.22166 17.627L1.90193 16.9634C0.649098 16.6054 -0.0759112 15.2993 0.282235 14.047C0.640291 12.7945 1.94759 12.067 3.19917 12.4276L5.51889 13.0912C6.77173 13.4492 7.49674 14.7553 7.13859 16.0076C6.84237 17.0433 5.89753 17.7191 4.87153 17.7191Z" fill="#2EBEE5"/>
<path d="M12.0175 7.93215C11.1885 7.93215 10.3841 7.4951 9.95274 6.71832L9.03864 5.07265C8.40629 3.93341 8.81656 2.49759 9.95535 1.86479C11.0941 1.23379 12.5304 1.64191 13.1637 2.78195L14.0778 4.42762C14.7101 5.56686 14.2998 7.00268 13.161 7.63548C12.7981 7.83644 12.405 7.93215 12.0175 7.93215Z" fill="#2EBEE5"/>
</svg>
