<svg width="62" height="51" viewBox="0 0 62 51" fill="none" xmlns="http://www.w3.org/2000/svg">
<path d="M12.7181 26.9028C12.5637 27.0571 12.4293 27.2116 12.295 27.3727C10.509 29.6129 10.6732 32.8331 12.6778 34.8801L26.7791 48.9813C28.9919 51.1919 32.5772 51.1919 34.79 48.9813L59.9843 23.7871C62.1957 21.572 62.1957 17.9846 59.9843 15.7695L45.9233 1.70845C43.6806 -0.43525 40.1484 -0.43525 37.9057 1.70845L30.8685 8.74565L26.7791 4.62265C20.6801 -1.51405 10.7611 -1.54475 4.62432 4.55435C1.82112 7.34025 0.176018 11.0827 0.0157184 15.0309H0.0134184C0.00671839 15.2726 1.83901e-05 15.4875 1.83901e-05 15.7024C-0.00638161 19.8654 1.65792 23.8568 4.61982 26.7819L7.64722 29.8245C7.84162 28.1814 8.47842 26.5763 9.57342 25.2029L9.62102 25.1447C9.68782 25.0646 9.75622 24.987 9.82442 24.9089L8.13852 23.223C6.13752 21.2326 5.01552 18.5247 5.02282 15.7024C5.02282 15.4958 5.02432 15.2881 5.05412 15.0578H5.06312C5.40642 9.20085 10.4326 4.73125 16.2895 5.07455C18.8943 5.22725 21.3518 6.33325 23.1934 8.18165L26.7792 11.7473L27.3365 12.3047L30.8954 15.8703L31.4192 16.394L37.523 22.5315C36.4144 23.3488 35.1014 23.8438 33.7291 23.9618H33.6619C32.5025 23.9361 31.4057 23.4303 30.6335 22.5651L27.9476 19.8792L27.4238 19.3554L23.8582 15.8032L23.7575 15.8972L20.2994 19.362L12.7181 26.9028ZM56.4254 20.2684L31.2311 45.4226C31.0532 45.6692 30.709 45.7248 30.4624 45.547C30.4146 45.5125 30.3725 45.4705 30.338 45.4226L30.009 45.0868L16.2703 31.3548C16.0279 31.109 16.0279 30.7142 16.2703 30.4684L23.8447 22.894L23.8649 22.9142L27.1082 26.144C28.8627 27.975 31.2872 29.0126 33.8231 29.018C38.772 28.924 42.6599 24.8883 43.0897 24.4317L44.7348 22.6523L34.4275 12.3047L41.4647 5.27415C41.7203 5.04345 42.1089 5.04345 42.3645 5.27415L56.4255 19.3755C56.5451 19.4914 56.6108 19.6521 56.6068 19.8186C56.611 19.9872 56.5453 20.15 56.4254 20.2684Z" fill="#0E7C9B"/>
</svg>
