<svg width="195" height="60" viewBox="0 0 195 60" fill="none" xmlns="http://www.w3.org/2000/svg">
<path d="M77.188 26.7154C71.6309 26.7154 67.5579 22.4353 67.5579 17.1537V17.0854C67.5579 11.8048 71.5962 7.45532 77.2569 7.45532C80.7429 7.45532 82.9171 8.62917 84.6432 10.5616L81.4334 14.0138C80.2595 12.7705 79.0861 11.9774 77.2222 11.9774C74.5992 11.9774 72.7353 14.2895 72.7353 17.016V17.0854C72.7353 19.915 74.5645 22.1934 77.4293 22.1934C79.1897 22.1934 80.3977 21.4339 81.6747 20.2263L84.7468 23.3326C82.9518 25.2996 80.8812 26.7154 77.188 26.7154Z" fill="#4F4F4F"/>
<path d="M98.3457 12.9431C94.8597 12.9431 92.7202 15.0489 92.7202 19.4669V26.301H87.4734V7.80038H92.7202V11.5283C93.7899 8.97423 95.5156 7.31757 98.6219 7.45533V12.9431H98.3457Z" fill="#4F4F4F"/>
<path d="M101.315 5.76385V1.10504H106.837V5.76385H101.315ZM101.453 26.301V7.80037H106.699V26.301H101.453Z" fill="#4F4F4F"/>
<path d="M117.433 26.646C114.844 26.646 111.945 25.7835 109.494 23.8501L111.738 20.3988C113.74 21.8483 115.845 22.6078 117.571 22.6078C119.09 22.6078 119.78 22.0556 119.78 21.2267V21.1583C119.78 20.0192 117.985 19.6394 115.949 19.0177C113.36 18.2582 110.426 17.0507 110.426 13.4616V13.3922C110.426 9.62962 113.464 7.52474 117.192 7.52474C119.538 7.52474 122.092 8.3179 124.095 9.66432L122.092 13.2881C120.263 12.2184 118.434 11.563 117.088 11.563C115.811 11.563 115.155 12.1152 115.155 12.84V12.9094C115.155 13.9444 116.916 14.4272 118.917 15.1184C121.506 15.9809 124.509 17.2233 124.509 20.6061V20.6745C124.509 24.7821 121.437 26.646 117.433 26.646Z" fill="#4F4F4F"/>
<path d="M127.684 5.76385V1.10504H133.206V5.76385H127.684ZM127.822 26.301V7.80037H133.069V26.301H127.822Z" fill="#4F4F4F"/>
<path d="M143.803 26.646C141.214 26.646 138.315 25.7835 135.864 23.8501L138.108 20.3988C140.109 21.8483 142.215 22.6078 143.941 22.6078C145.459 22.6078 146.15 22.0556 146.15 21.2267V21.1583C146.15 20.0192 144.355 19.6394 142.319 19.0177C139.73 18.2582 136.796 17.0507 136.796 13.4616V13.3922C136.796 9.62962 139.833 7.52474 143.561 7.52474C145.908 7.52474 148.462 8.3179 150.464 9.66432L148.462 13.2881C146.633 12.2184 144.804 11.563 143.458 11.563C142.181 11.563 141.525 12.1152 141.525 12.84V12.9094C141.525 13.9444 143.285 14.4272 145.287 15.1184C147.876 15.9809 150.878 17.2233 150.878 20.6061V20.6745C150.878 24.7821 147.807 26.646 143.803 26.646Z" fill="#4F4F4F"/>
<path d="M68.0612 55.7873C65.4724 55.7873 62.5735 54.9237 60.1226 52.9914L62.3663 49.5401C64.368 50.9896 66.4734 51.7491 68.199 51.7491C69.7179 51.7491 70.408 51.1958 70.408 50.368V50.2996C70.408 49.1605 68.6135 48.7807 66.5771 48.159C63.9883 47.3995 61.0547 46.192 61.0547 42.6029V42.5335C61.0547 38.7709 64.092 36.666 67.8194 36.666C70.1667 36.666 72.7212 37.4592 74.723 38.8056L72.7212 42.4294C70.8915 41.3596 69.0622 40.7042 67.7163 40.7042C66.4393 40.7042 65.7835 41.2554 65.7835 41.9802V42.0496C65.7835 43.0847 67.5439 43.5685 69.5456 44.2586C72.1343 45.1222 75.1369 46.3644 75.1369 49.7463V49.8157C75.1369 53.9234 72.0646 55.7873 68.0612 55.7873Z" fill="#4F4F4F"/>
<path d="M95.3977 48.0212H82.5236C83.0411 50.4027 84.6979 51.645 87.0446 51.645C88.8055 51.645 90.0824 51.0928 91.532 49.7463L94.5347 52.4045C92.809 54.5441 90.324 55.8567 86.9758 55.8567C81.4192 55.8567 77.3116 51.9553 77.3116 46.295V46.2267C77.3116 40.9452 81.0742 36.5966 86.4583 36.5966C92.6365 36.5966 95.4668 41.3942 95.4668 46.6411V46.7095C95.4668 47.227 95.4324 47.5373 95.3977 48.0212ZM86.4582 40.8073C84.2834 40.8073 82.8686 42.36 82.4542 44.7424H90.3581C90.0477 42.3946 88.6672 40.8073 86.4582 40.8073Z" fill="#4F4F4F"/>
<path d="M109.549 42.0843C106.063 42.0843 103.923 44.1892 103.923 48.6071V55.4423H98.6765V36.9416H103.923V40.6695C104.993 38.1155 106.719 36.4578 109.825 36.5966V42.0843H109.549Z" fill="#4F4F4F"/>
<path d="M122.803 55.579H118.04L110.757 36.9415H116.315L120.456 49.3318L124.632 36.9415H130.086L122.803 55.579Z" fill="#4F4F4F"/>
<path d="M132.537 34.9051V30.2453H138.059V34.9051H132.537ZM132.675 55.4423V36.9416H137.921V55.4423H132.675Z" fill="#4F4F4F"/>
<path d="M150.899 55.8567C145.341 55.8567 141.269 51.5756 141.269 46.295V46.2267C141.269 40.9452 145.307 36.5966 150.967 36.5966C154.453 36.5966 156.628 37.7705 158.353 39.7029L155.144 43.1542C153.97 41.9119 152.797 41.1187 150.933 41.1187C148.31 41.1187 146.446 43.4297 146.446 46.1573V46.2267C146.446 49.0562 148.275 51.3346 151.14 51.3346C152.9 51.3346 154.108 50.5751 155.385 49.3666L158.457 52.4739C156.662 54.4409 154.592 55.8567 150.899 55.8567Z" fill="#4F4F4F"/>
<path d="M177.855 48.0212H164.981C165.499 50.4027 167.156 51.645 169.502 51.645C171.263 51.645 172.54 51.0928 173.99 49.7463L176.992 52.4045C175.267 54.5441 172.782 55.8567 169.434 55.8567C163.877 55.8567 159.769 51.9553 159.769 46.295V46.2267C159.769 40.9452 163.532 36.5966 168.916 36.5966C175.094 36.5966 177.924 41.3942 177.924 46.6411V46.7095C177.924 47.227 177.89 47.5373 177.855 48.0212ZM168.916 40.8073C166.741 40.8073 165.326 42.36 164.912 44.7424H172.816C172.505 42.3946 171.125 40.8073 168.916 40.8073Z" fill="#4F4F4F"/>
<path d="M187.623 55.7873C185.035 55.7873 182.136 54.9237 179.685 52.9914L181.928 49.5401C183.93 50.9896 186.035 51.7491 187.761 51.7491C189.28 51.7491 189.97 51.1958 189.97 50.368V50.2996C189.97 49.1605 188.176 48.7807 186.139 48.159C183.55 47.3995 180.617 46.192 180.617 42.6029V42.5335C180.617 38.7709 183.654 36.666 187.381 36.666C189.729 36.666 192.283 37.4592 194.285 38.8056L192.283 42.4294C190.454 41.3596 188.624 40.7042 187.278 40.7042C186.001 40.7042 185.346 41.2554 185.346 41.9802V42.0496C185.346 43.0847 187.106 43.5685 189.108 44.2586C191.696 45.1222 194.699 46.3644 194.699 49.7463V49.8157C194.699 53.9234 191.627 55.7873 187.623 55.7873Z" fill="#4F4F4F"/>
<path d="M29.6527 60L9.35805 39.7059C0.61512 31.6376 -4.17132 18.642 4.82321 7.75137C10.4028 0.993736 20.803 -2.84025 29.8125 2.54744C38.6892 -2.69527 48.6306 0.790638 54.2091 7.32364C60.4895 14.6794 62.0813 26.8481 51.478 37.451L36.1995 52.729L12.8481 29.3776C10.7071 27.237 9.52749 24.3911 9.52749 21.3624C9.52749 18.3337 10.707 15.4888 12.8481 13.3472C17.2661 8.92919 24.458 8.92825 28.8779 13.3461L29.8028 14.271L30.7368 13.3369C35.1568 8.91591 42.3488 8.91591 46.7677 13.3359C48.9087 15.4774 50.0883 18.3234 50.0883 21.352C50.0883 24.3806 48.9088 27.2256 46.7677 29.3672L36.9396 39.2085L33.0591 35.3286L42.8872 25.4862C45.1676 23.2068 45.1676 19.4962 42.8877 17.2169C40.6073 14.9365 36.8977 14.9365 34.6173 17.2169L29.8028 22.0329L24.9974 17.227C22.7175 14.9467 19.0074 14.9476 16.7286 17.2281C15.6237 18.3325 15.0152 19.8004 15.0152 21.3623C15.0152 22.9241 15.6236 24.3919 16.7281 25.4965L36.1995 44.9689L47.5981 33.5698C56.2798 24.888 54.3373 15.9245 50.0356 10.887C45.7515 5.86986 37.9781 3.2852 31.413 8.05429L29.7854 9.2364L28.1685 8.04007C21.5303 3.126 13.3662 6.02404 9.0544 11.2453C4.35168 16.9402 2.9486 26.3569 13.116 35.7053L13.1987 35.7849L33.5332 56.1199L29.6527 60Z" fill="#00B4A4"/>
</svg>
