<svg width="206" height="60" viewBox="0 0 206 60" fill="none" xmlns="http://www.w3.org/2000/svg">
<path d="M115.23 28.7869L110.941 22.0782L109.318 23.7941V28.7869H104.661V6.42473H109.318V18.341L114.771 12.3679H120.345L114.096 18.8311L120.56 28.7868L115.23 28.7869Z" fill="#4F4F4F"/>
<path d="M122.276 10.5596V6.42473H127.177V10.5596H122.276ZM122.398 28.7869V12.3679H127.055V28.7868L122.398 28.7869Z" fill="#4F4F4F"/>
<path d="M141.207 28.7869V19.6276C141.207 17.4215 140.165 16.2891 138.388 16.2891C136.612 16.2891 135.478 17.4215 135.478 19.6276V28.7869H130.822V12.3679H135.478V14.6963C136.55 13.3174 137.929 12.0617 140.288 12.0617C143.811 12.0617 145.863 14.3892 145.863 18.1571V28.7869H141.207Z" fill="#4F4F4F"/>
<path d="M156.646 33.7489C153.981 33.7489 151.469 33.1364 149.386 32.0339L150.979 28.5415C152.664 29.4909 154.349 30.0435 156.523 30.0435C159.71 30.0435 161.211 28.5107 161.211 25.5698V24.7744C159.832 26.4287 158.331 27.4397 155.849 27.4397C152.021 27.4397 148.559 24.6511 148.559 19.7805V19.7189C148.559 14.8176 152.081 12.0616 155.849 12.0616C158.392 12.0616 159.894 13.1334 161.149 14.5114V12.3679H165.805V25.0805C165.805 31.2683 162.742 33.7489 156.646 33.7489ZM161.211 19.719C161.211 17.4831 159.464 15.9211 157.197 15.9211C154.931 15.9211 153.215 17.4831 153.215 19.719V19.7806C153.215 22.0474 154.931 23.5794 157.197 23.5794C159.464 23.5794 161.211 22.0165 161.211 19.7806V19.719Z" fill="#4F4F4F"/>
<path d="M112.411 54.4414C107.479 54.4414 103.864 50.6417 103.864 45.9551V45.8944C103.864 41.2069 107.449 37.3474 112.473 37.3474C115.567 37.3474 117.497 38.3893 119.029 40.1043L116.179 43.1675C115.138 42.0649 114.097 41.3609 112.442 41.3609C110.114 41.3609 108.46 43.412 108.46 45.8328V45.8944C108.46 48.4057 110.083 50.4279 112.626 50.4279C114.188 50.4279 115.261 49.7538 116.394 48.6812L119.12 51.439C117.527 53.1848 115.689 54.4414 112.411 54.4414Z" fill="#4F4F4F"/>
<path d="M129.138 54.4414C124.052 54.4414 120.284 50.6725 120.284 45.9551V45.8944C120.284 41.1761 124.083 37.3474 129.199 37.3474C134.284 37.3474 138.052 41.1154 138.052 45.8328V45.8944C138.052 50.6109 134.254 54.4414 129.138 54.4414ZM133.457 45.8944C133.457 43.4736 131.711 41.3609 129.138 41.3609C126.472 41.3609 124.88 43.412 124.88 45.8328V45.8944C124.88 48.3133 126.626 50.4279 129.199 50.4279C131.864 50.4279 133.457 48.3749 133.457 45.9551V45.8944Z" fill="#4F4F4F"/>
<path d="M151.071 54.0735V51.7452C149.999 53.124 148.621 54.3797 146.262 54.3797C142.739 54.3797 140.687 52.0513 140.687 48.2834V37.6536H145.343V46.8129C145.343 49.0181 146.385 50.1524 148.161 50.1524C149.938 50.1524 151.071 49.018 151.071 46.8129V37.6536H155.728V54.0734L151.071 54.0735Z" fill="#4F4F4F"/>
<path d="M169.665 54.0735V44.9142C169.665 42.7082 168.624 41.5748 166.847 41.5748C165.07 41.5748 163.937 42.7082 163.937 44.9142V54.0735H159.28V37.6537H163.937V39.9821C165.009 38.6032 166.388 37.3475 168.747 37.3475C172.269 37.3475 174.321 39.6759 174.321 43.4429V54.0736L169.665 54.0735Z" fill="#4F4F4F"/>
<path d="M183.298 54.349C180.448 54.349 178.519 53.2147 178.519 49.4169V41.6364H176.558V37.6537H178.519V33.4572H183.174V37.6537H187.035V41.6364H183.174V48.6504C183.174 49.723 183.634 50.244 184.676 50.244C185.534 50.244 186.299 50.0294 186.973 49.6615V53.3996C185.993 53.9813 184.859 54.349 183.298 54.349Z" fill="#4F4F4F"/>
<path d="M199.166 54.4713C197.91 57.8098 196.562 59.0664 193.774 59.0664C192.089 59.0664 190.834 58.6378 189.639 57.933L191.201 54.5627C191.814 54.9306 192.579 55.206 193.193 55.206C193.989 55.206 194.418 54.9614 194.816 54.1342L188.383 37.6537H193.315L197.052 48.8352L200.636 37.6537H205.476L199.166 54.4713Z" fill="#4F4F4F"/>
<path d="M79.2194 47.9953C74.5659 51.7872 68.6309 54.0665 62.1599 54.0665H27.0333C19.0606 54.0665 11.8959 50.6135 6.94796 45.1235L6.94666 45.1253L11.5955 50.9503C16.5459 56.4915 23.7245 60 31.74 60H66.8667C73.3373 60 79.2724 57.721 83.9258 53.9289L79.2194 47.9953Z" fill="#539ED0"/>
<path d="M94.6107 54.0089C87.4459 54.0089 82.2831 50.7239 79.2195 47.9953L83.9259 53.9289C85.9456 55.7278 88.8966 57.7492 92.7132 58.931C94.6856 59.5419 96.876 59.9424 99.3175 59.9424L94.6107 54.0089Z" fill="#FF443B"/>
<path d="M94.996 47.0134C94.356 43.2759 93.8996 38.6564 93.8996 32.9668C93.8996 27.0847 92.0005 21.6576 88.8101 17.2201L83.2715 10.1486C83.2715 10.1486 83.2645 10.1457 83.2612 10.1443C86.9699 14.772 89.1932 20.6415 89.1932 27.0332C89.1932 46.7827 94.6108 54.0089 94.6108 54.0089L99.3175 59.9425C99.3175 59.9425 96.5782 56.2495 94.996 47.0134Z" fill="#FFB351"/>
<path d="M94.6107 54.0089C94.6107 54.0089 89.1931 46.7828 89.1931 27.0333C89.1931 12.1033 77.0901 0 62.1598 0H27.0333C12.1034 0 0 12.1033 0 27.0333C0 41.9632 12.1034 54.0665 27.0333 54.0665H62.1599C68.6309 54.0665 74.566 51.7872 79.2195 47.9953C82.2831 50.724 87.4458 54.0089 94.6107 54.0089Z" fill="#005191"/>
<path d="M37.4917 40.8627H18.3994V36.7287L27.1937 27.4819C29.3606 25.0154 30.4448 23.0545 30.4448 21.6006C30.4448 20.4234 30.1874 19.5275 29.6742 18.9143C29.1601 18.2996 28.4156 17.9923 27.4382 17.9923C26.4731 17.9923 25.6901 18.4026 25.0892 19.2233C24.4876 20.0439 24.1871 21.0689 24.1871 22.2968H17.8356C17.8356 20.6171 18.2551 19.0665 19.0942 17.6449C19.9341 16.2234 21.0989 15.1123 22.5897 14.3101C24.0803 13.5079 25.747 13.1067 27.588 13.1067C30.5449 13.1067 32.8216 13.7906 34.419 15.1552C36.0165 16.5214 36.8148 18.4808 36.8148 21.0365C36.8148 22.1153 36.6143 23.1634 36.214 24.1839C35.8128 25.2058 35.1897 26.277 34.3437 27.3973C33.4984 28.5192 32.1361 30.019 30.2566 31.8986L26.7236 35.9757H37.4919L37.4917 40.8627Z" fill="white"/>
<path d="M53.3471 40.8626H46.9956V20.6431L40.757 22.4657V17.654L52.7647 13.5016H53.3471V40.8626Z" fill="white"/>
<path d="M71.091 40.8626H64.7394V20.6431L58.5008 22.4657V17.654L70.5086 13.5016H71.091V40.8626Z" fill="white"/>
</svg>
