<svg width="28" height="25" viewBox="0 0 28 25" fill="none" xmlns="http://www.w3.org/2000/svg">
<path d="M17.9981 25L10.4514 17.4538C8.49685 15.4988 8.49685 12.3183 10.4512 10.3633C11.3982 9.41627 12.6574 8.89481 13.9965 8.89481C15.3356 8.89481 16.5947 9.41623 17.5416 10.3633L17.995 10.8168L18.4529 10.3589C19.3997 9.4123 20.6586 8.89044 21.9977 8.89044H21.9984C23.3375 8.89044 24.5962 9.41185 25.543 10.3585C26.49 11.3055 27.0117 12.5644 27.0117 13.9039C27.0117 15.2434 26.4901 16.5024 25.543 17.449L17.9981 25ZM13.9965 11.2367C13.283 11.2367 12.6119 11.5146 12.1072 12.0195C11.0659 13.0611 11.0659 14.7561 12.1074 15.7976L17.9981 21.6884L23.8871 15.7928C24.3918 15.2883 24.6697 14.6175 24.6697 13.904C24.6697 13.19 24.3918 12.5191 23.8871 12.0147C23.3825 11.5098 22.7116 11.2323 21.9979 11.2323C21.2841 11.2323 20.6133 11.5102 20.1088 12.0151L17.995 14.1283L15.8857 12.0195C15.3811 11.5146 14.7101 11.2367 13.9965 11.2367Z" fill="#6D2077"/>
<path d="M5.50858 15.2496C4.86191 15.2496 4.33765 14.7256 4.33765 14.0787C4.33765 8.71539 8.70098 4.35223 14.0643 4.35223C14.711 4.35223 15.2352 4.87628 15.2352 5.52317C15.2352 6.17006 14.711 6.69411 14.0643 6.69411C9.9924 6.69411 6.67952 10.007 6.67952 14.0787C6.67952 14.7256 6.15525 15.2496 5.50858 15.2496Z" fill="#6D2077"/>
<path d="M1.17094 15.2352C0.524267 15.2352 0 14.7112 0 14.0643C0 6.30905 6.30923 0 14.0643 0C14.711 0 15.2352 0.524044 15.2352 1.17094C15.2352 1.81783 14.711 2.34187 14.0643 2.34187C7.60065 2.34187 2.34187 7.60065 2.34187 14.0643C2.34187 14.7112 1.81761 15.2352 1.17094 15.2352Z" fill="#6D2077"/>
</svg>
